<?xml version="1.0" encoding="UTF-8" standalone="no"?>
<!DOCTYPE svg PUBLIC "-//W3C//DTD SVG 1.1//EN"
 "http://www.w3.org/Graphics/SVG/1.1/DTD/svg11.dtd">
<!-- Generated by graphviz version 2.43.0 (0)
 -->
<!-- Title: ComputationalGraph Pages: 1 -->
<svg width="479pt" height="616pt"
 viewBox="0.00 0.00 479.00 616.39" xmlns="http://www.w3.org/2000/svg" xmlns:xlink="http://www.w3.org/1999/xlink">
<g id="graph0" class="graph" transform="scale(1 1) rotate(0) translate(4 612.39)">
<title>ComputationalGraph</title>
<polygon fill="white" stroke="transparent" points="-4,4 -4,-612.39 475,-612.39 475,4 -4,4"/>
<!-- ReturnNode -->
<g id="node1" class="node">
<title>ReturnNode</title>
<polygon fill="#cdba96" stroke="#cdba96" points="383,-36 317,-36 317,0 383,0 383,-36"/>
<text text-anchor="middle" x="350" y="-13.6" font-family="Times,serif" font-size="18.00">Return</text>
</g>
<!-- g18636 -->
<g id="node2" class="node">
<title>g18636</title>
<ellipse fill="lightcyan" stroke="lightcyan" cx="324" cy="-307.8" rx="27" ry="19.6"/>
<text text-anchor="start" x="313.5" y="-304.4" font-family="Times,serif" font-style="italic" font-size="18.00">G</text>
<text text-anchor="start" x="326.5" y="-304.4" font-family="Times,serif" baseline-shift="sub" font-size="18.00">1</text>
</g>
<!-- g18652 -->
<g id="node8" class="node">
<title>g18652</title>
<polygon fill="lightpink" stroke="lightpink" points="403,-251 367,-251 367,-222 403,-222 403,-251"/>
<text text-anchor="start" x="375.5" y="-233.1" font-family="Times,serif" font-weight="bold" font-size="18.00">⊗</text>
</g>
<!-- g18636&#45;&gt;g18652 -->
<g id="edge5" class="edge">
<title>g18636&#45;&gt;g18652</title>
<path fill="none" stroke="black" stroke-width="0.2" d="M338.15,-290.73C347.96,-279.57 360.99,-264.78 370.81,-253.62"/>
<polygon fill="black" stroke="black" stroke-width="0.2" points="372.98,-251.15 372.02,-254.29 371.99,-252.28 371,-253.4 371,-253.4 371,-253.4 371.99,-252.28 369.99,-252.51 372.98,-251.15 372.98,-251.15"/>
</g>
<!-- g18717 -->
<g id="node21" class="node">
<title>g18717</title>
<polygon fill="lightpink" stroke="lightpink" points="342,-185 306,-185 306,-156 342,-156 342,-185"/>
<text text-anchor="start" x="314.5" y="-167.1" font-family="Times,serif" font-weight="bold" font-size="18.00">⊗</text>
</g>
<!-- g18636&#45;&gt;g18717 -->
<g id="edge24" class="edge">
<title>g18636&#45;&gt;g18717</title>
<path fill="none" stroke="black" stroke-width="0.2" d="M324,-287.99C324,-261.58 324,-213.92 324,-188.52"/>
<polygon fill="black" stroke="black" stroke-width="0.2" points="324,-185.23 325.35,-188.23 324,-186.73 324,-188.23 324,-188.23 324,-188.23 324,-186.73 322.65,-188.23 324,-185.23 324,-185.23"/>
</g>
<!-- g18719 -->
<g id="node26" class="node">
<title>g18719</title>
<polygon fill="lightpink" stroke="lightpink" points="288,-185 252,-185 252,-156 288,-156 288,-185"/>
<text text-anchor="start" x="260.5" y="-167.1" font-family="Times,serif" font-weight="bold" font-size="18.00">⊗</text>
</g>
<!-- g18636&#45;&gt;g18719 -->
<g id="edge35" class="edge">
<title>g18636&#45;&gt;g18719</title>
<path fill="none" stroke="black" stroke-width="0.2" d="M316.72,-288.55C306.21,-262.21 286.92,-213.91 276.73,-188.36"/>
<polygon fill="black" stroke="black" stroke-width="0.2" points="275.53,-185.36 277.9,-187.65 276.09,-186.76 276.65,-188.15 276.65,-188.15 276.65,-188.15 276.09,-186.76 275.39,-188.65 275.53,-185.36 275.53,-185.36"/>
</g>
<!-- g18643 -->
<g id="node3" class="node">
<title>g18643</title>
<ellipse fill="lightcyan" stroke="lightcyan" cx="390" cy="-494.99" rx="27" ry="19.6"/>
<text text-anchor="start" x="379.5" y="-491.59" font-family="Times,serif" font-style="italic" font-size="18.00">G</text>
<text text-anchor="start" x="392.5" y="-491.59" font-family="Times,serif" baseline-shift="sub" font-size="18.00">2</text>
</g>
<!-- g18644 -->
<g id="node5" class="node">
<title>g18644</title>
<polygon fill="lightpink" stroke="lightpink" points="344,-415.9 308,-415.9 308,-386.9 344,-386.9 344,-415.9"/>
<text text-anchor="start" x="316.5" y="-398" font-family="Times,serif" font-weight="bold" font-size="18.00">⊗</text>
</g>
<!-- g18643&#45;&gt;g18644 -->
<g id="edge1" class="edge">
<title>g18643&#45;&gt;g18644</title>
<path fill="none" stroke="black" stroke-width="0.2" d="M378.06,-476.69C370.59,-465.89 360.76,-451.72 352,-439.2 347.29,-432.47 342.07,-425.07 337.55,-418.68"/>
<polygon fill="black" stroke="black" stroke-width="0.2" points="335.66,-416.01 338.49,-417.68 336.53,-417.23 337.39,-418.46 337.39,-418.46 337.39,-418.46 336.53,-417.23 336.29,-419.24 335.66,-416.01 335.66,-416.01"/>
</g>
<!-- g18637 -->
<g id="node4" class="node">
<title>g18637</title>
<ellipse fill="lightcyan" stroke="lightcyan" cx="318" cy="-494.99" rx="27" ry="19.6"/>
<text text-anchor="start" x="308" y="-491.59" font-family="Times,serif" font-style="italic" font-size="18.00">V</text>
<text text-anchor="start" x="320" y="-491.59" font-family="Times,serif" baseline-shift="sub" font-size="18.00">3</text>
</g>
<!-- g18637&#45;&gt;g18644 -->
<g id="edge2" class="edge">
<title>g18637&#45;&gt;g18644</title>
<path fill="none" stroke="black" stroke-width="0.2" d="M319.66,-475.02C321.1,-458.51 323.17,-434.83 324.55,-419.05"/>
<polygon fill="black" stroke="black" stroke-width="0.2" points="324.81,-416 325.9,-419.1 324.68,-417.49 324.55,-418.99 324.55,-418.99 324.55,-418.99 324.68,-417.49 323.21,-418.87 324.81,-416 324.81,-416"/>
<text text-anchor="middle" x="335" y="-444.4" font-family="Times,serif" font-size="16.00">&#45;1.0</text>
</g>
<!-- g18651 -->
<g id="node7" class="node">
<title>g18651</title>
<polygon fill="lightpink" stroke="lightpink" points="405,-322.3 369,-322.3 369,-293.3 405,-293.3 405,-322.3"/>
<text text-anchor="start" x="377.5" y="-304.4" font-family="Times,serif" font-weight="bold" font-size="18.00">⊗</text>
</g>
<!-- g18644&#45;&gt;g18651 -->
<g id="edge3" class="edge">
<title>g18644&#45;&gt;g18651</title>
<path fill="none" stroke="black" stroke-width="0.2" d="M335,-386.88C345.99,-370.38 364.57,-342.49 376.28,-324.89"/>
<polygon fill="black" stroke="black" stroke-width="0.2" points="377.96,-322.37 377.42,-325.62 377.13,-323.62 376.3,-324.87 376.3,-324.87 376.3,-324.87 377.13,-323.62 375.18,-324.12 377.96,-322.37 377.96,-322.37"/>
</g>
<!-- g18650 -->
<g id="node6" class="node">
<title>g18650</title>
<ellipse fill="lightcyan" stroke="lightcyan" cx="389" cy="-401.4" rx="27" ry="19.6"/>
<text text-anchor="start" x="378.5" y="-398" font-family="Times,serif" font-style="italic" font-size="18.00">G</text>
<text text-anchor="start" x="391.5" y="-398" font-family="Times,serif" baseline-shift="sub" font-size="18.00">4</text>
</g>
<!-- g18650&#45;&gt;g18651 -->
<g id="edge4" class="edge">
<title>g18650&#45;&gt;g18651</title>
<path fill="none" stroke="black" stroke-width="0.2" d="M388.59,-381.42C388.23,-364.91 387.71,-341.23 387.36,-325.45"/>
<polygon fill="black" stroke="black" stroke-width="0.2" points="387.3,-322.4 388.71,-325.37 387.33,-323.9 387.36,-325.4 387.36,-325.4 387.36,-325.4 387.33,-323.9 386.01,-325.43 387.3,-322.4 387.3,-322.4"/>
</g>
<!-- g18651&#45;&gt;g18652 -->
<g id="edge6" class="edge">
<title>g18651&#45;&gt;g18652</title>
<path fill="none" stroke="black" stroke-width="0.2" d="M386.6,-293.11C386.28,-282 385.83,-266.3 385.49,-254.41"/>
<polygon fill="black" stroke="black" stroke-width="0.2" points="385.39,-251.16 386.83,-254.12 385.44,-252.66 385.48,-254.16 385.48,-254.16 385.48,-254.16 385.44,-252.66 384.13,-254.2 385.39,-251.16 385.39,-251.16"/>
</g>
<!-- g18653 -->
<g id="node10" class="node">
<title>g18653</title>
<polygon fill="lightpink" stroke="lightpink" points="403,-185 367,-185 367,-156 403,-156 403,-185"/>
<text text-anchor="start" x="375.5" y="-167.1" font-family="Times,serif" font-weight="bold" font-size="18.00">⊗</text>
</g>
<!-- g18652&#45;&gt;g18653 -->
<g id="edge7" class="edge">
<title>g18652&#45;&gt;g18653</title>
<path fill="none" stroke="black" stroke-width="0.2" d="M385,-221.93C385,-212.08 385,-198.71 385,-188.21"/>
<polygon fill="black" stroke="black" stroke-width="0.2" points="385,-185.05 386.35,-188.05 385,-186.55 385,-188.05 385,-188.05 385,-188.05 385,-186.55 383.65,-188.05 385,-185.05 385,-185.05"/>
</g>
<!-- g18630 -->
<g id="node9" class="node">
<title>g18630</title>
<ellipse fill="lightcyan" stroke="lightcyan" cx="193" cy="-588.59" rx="27" ry="19.6"/>
<text text-anchor="start" x="183" y="-585.19" font-family="Times,serif" font-style="italic" font-size="18.00">V</text>
<text text-anchor="start" x="195" y="-585.19" font-family="Times,serif" baseline-shift="sub" font-size="18.00">5</text>
</g>
<!-- g18630&#45;&gt;g18653 -->
<g id="edge8" class="edge">
<title>g18630&#45;&gt;g18653</title>
<path fill="none" stroke="black" stroke-width="0.2" d="M219.49,-583.74C284.19,-573.6 445,-543.59 445,-495.99 445,-495.99 445,-495.99 445,-235.5 445,-212.03 423.26,-193.63 405.96,-182.7"/>
<polygon fill="black" stroke="black" stroke-width="0.2" points="403,-180.87 406.26,-181.3 404.28,-181.66 405.56,-182.45 405.56,-182.45 405.56,-182.45 404.28,-181.66 404.85,-183.6 403,-180.87 403,-180.87"/>
<text text-anchor="middle" x="458" y="-350.8" font-family="Times,serif" font-size="16.00">&#45;1.0</text>
</g>
<!-- g18682 -->
<g id="node13" class="node">
<title>g18682</title>
<polygon fill="darkturquoise" stroke="darkturquoise" points="157,-509.49 121,-509.49 121,-480.49 157,-480.49 157,-509.49"/>
<text text-anchor="start" x="129.5" y="-491.59" font-family="Times,serif" font-weight="bold" font-size="18.00">⊕</text>
</g>
<!-- g18630&#45;&gt;g18682 -->
<g id="edge11" class="edge">
<title>g18630&#45;&gt;g18682</title>
<path fill="none" stroke="black" stroke-width="0.2" d="M174,-574.03C166.46,-567.75 158.32,-559.7 153,-550.79 146.09,-539.24 142.57,-524.34 140.79,-513"/>
<polygon fill="black" stroke="black" stroke-width="0.2" points="140.33,-509.9 142.1,-512.67 140.55,-511.38 140.77,-512.86 140.77,-512.86 140.77,-512.86 140.55,-511.38 139.43,-513.06 140.33,-509.9 140.33,-509.9"/>
<text text-anchor="middle" x="166" y="-537.99" font-family="Times,serif" font-size="16.00">&#45;1.0</text>
</g>
<!-- g18691 -->
<g id="node14" class="node">
<title>g18691</title>
<polygon fill="darkturquoise" stroke="darkturquoise" points="41,-509.49 5,-509.49 5,-480.49 41,-480.49 41,-509.49"/>
<text text-anchor="start" x="13.5" y="-491.59" font-family="Times,serif" font-weight="bold" font-size="18.00">⊕</text>
</g>
<!-- g18630&#45;&gt;g18691 -->
<g id="edge13" class="edge">
<title>g18630&#45;&gt;g18691</title>
<path fill="none" stroke="black" stroke-width="0.2" d="M165.79,-587.32C134.33,-585.63 82.56,-578.44 49,-550.79 37.31,-541.17 30.55,-525.06 26.87,-512.8"/>
<polygon fill="black" stroke="black" stroke-width="0.2" points="26,-509.77 28.12,-512.28 26.41,-511.21 26.83,-512.65 26.83,-512.65 26.83,-512.65 26.41,-511.21 25.53,-513.02 26,-509.77 26,-509.77"/>
<text text-anchor="middle" x="62" y="-537.99" font-family="Times,serif" font-size="16.00">&#45;1.0</text>
</g>
<!-- g18706 -->
<g id="node16" class="node">
<title>g18706</title>
<polygon fill="lightpink" stroke="lightpink" points="273,-509.49 237,-509.49 237,-480.49 273,-480.49 273,-509.49"/>
<text text-anchor="start" x="245.5" y="-491.59" font-family="Times,serif" font-weight="bold" font-size="18.00">⊗</text>
</g>
<!-- g18630&#45;&gt;g18706 -->
<g id="edge17" class="edge">
<title>g18630&#45;&gt;g18706</title>
<path fill="none" stroke="black" stroke-width="0.2" d="M217.08,-579.32C230.11,-573.5 245.11,-564.3 253,-550.79 259.67,-539.37 259.69,-524.21 258.31,-512.73"/>
<polygon fill="black" stroke="black" stroke-width="0.2" points="257.89,-509.59 259.63,-512.39 258.09,-511.08 258.29,-512.57 258.29,-512.57 258.29,-512.57 258.09,-511.08 256.95,-512.74 257.89,-509.59 257.89,-509.59"/>
<text text-anchor="middle" x="271" y="-537.99" font-family="Times,serif" font-size="16.00">&#45;1.0</text>
</g>
<!-- g18630&#45;&gt;g18706 -->
<g id="edge18" class="edge">
<title>g18630&#45;&gt;g18706</title>
<path fill="none" stroke="black" stroke-width="0.2" d="M201.54,-569.75C207.1,-558.74 214.82,-544.54 223,-532.79 228,-525.62 234.17,-518.24 239.76,-511.99"/>
<polygon fill="black" stroke="black" stroke-width="0.2" points="241.79,-509.74 240.78,-512.87 240.79,-510.86 239.78,-511.97 239.78,-511.97 239.78,-511.97 240.79,-510.86 238.78,-511.07 241.79,-509.74 241.79,-509.74"/>
<text text-anchor="middle" x="236" y="-537.99" font-family="Times,serif" font-size="16.00">&#45;1.0</text>
</g>
<!-- g18698 -->
<g id="node22" class="node">
<title>g18698</title>
<polygon fill="lightpink" stroke="lightpink" points="196,-415.9 160,-415.9 160,-386.9 196,-386.9 196,-415.9"/>
<text text-anchor="start" x="168.5" y="-398" font-family="Times,serif" font-weight="bold" font-size="18.00">⊗</text>
</g>
<!-- g18630&#45;&gt;g18698 -->
<g id="edge27" class="edge">
<title>g18630&#45;&gt;g18698</title>
<path fill="none" stroke="black" stroke-width="0.2" d="M191.48,-568.82C188.55,-532.65 182.17,-453.84 179.36,-419.25"/>
<polygon fill="black" stroke="black" stroke-width="0.2" points="179.11,-416.04 180.69,-418.92 179.23,-417.54 179.35,-419.03 179.35,-419.03 179.35,-419.03 179.23,-417.54 178,-419.14 179.11,-416.04 179.11,-416.04"/>
<text text-anchor="middle" x="200" y="-491.19" font-family="Times,serif" font-size="16.00">&#45;1.0</text>
</g>
<!-- g18702 -->
<g id="node23" class="node">
<title>g18702</title>
<polygon fill="lightpink" stroke="lightpink" points="81,-415.9 45,-415.9 45,-386.9 81,-386.9 81,-415.9"/>
<text text-anchor="start" x="53.5" y="-398" font-family="Times,serif" font-weight="bold" font-size="18.00">⊗</text>
</g>
<!-- g18630&#45;&gt;g18702 -->
<g id="edge28" class="edge">
<title>g18630&#45;&gt;g18702</title>
<path fill="none" stroke="black" stroke-width="0.2" d="M169.84,-578.23C145.06,-566.97 106.55,-545.65 86,-514.79 66.34,-485.29 62.9,-442.47 62.63,-419.12"/>
<polygon fill="black" stroke="black" stroke-width="0.2" points="62.61,-416.1 63.98,-419.09 62.62,-417.6 62.63,-419.1 62.63,-419.1 62.63,-419.1 62.62,-417.6 61.28,-419.1 62.61,-416.1 62.61,-416.1"/>
<text text-anchor="middle" x="99" y="-491.19" font-family="Times,serif" font-size="16.00">&#45;1.0</text>
</g>
<!-- g18721 -->
<g id="node11" class="node">
<title>g18721</title>
<polygon fill="darkturquoise" stroke="darkturquoise" points="398,-102 362,-102 362,-73 398,-73 398,-102"/>
<text text-anchor="start" x="370.5" y="-84.1" font-family="Times,serif" font-weight="bold" font-size="18.00">⊕</text>
</g>
<!-- g18653&#45;&gt;g18721 -->
<g id="edge9" class="edge">
<title>g18653&#45;&gt;g18721</title>
<path fill="none" stroke="black" stroke-width="0.2" d="M384.15,-155.76C383.29,-141.83 381.96,-120.25 381.04,-105.31"/>
<polygon fill="black" stroke="black" stroke-width="0.2" points="380.84,-102.04 382.37,-104.95 380.93,-103.53 381.02,-105.03 381.02,-105.03 381.02,-105.03 380.93,-103.53 379.67,-105.12 380.84,-102.04 380.84,-102.04"/>
</g>
<!-- g18721&#45;&gt;ReturnNode -->
<g id="edge10" class="edge">
<title>g18721&#45;&gt;ReturnNode</title>
<path fill="none" stroke="black" stroke-width="0.2" d="M373.93,-72.84C369.67,-63.26 363.91,-50.29 359.1,-39.48"/>
<polygon fill="black" stroke="black" stroke-width="0.2" points="357.77,-36.49 360.23,-38.69 358.38,-37.86 358.99,-39.23 358.99,-39.23 358.99,-39.23 358.38,-37.86 357.76,-39.78 357.77,-36.49 357.77,-36.49"/>
</g>
<!-- g18676 -->
<g id="node12" class="node">
<title>g18676</title>
<ellipse fill="lightcyan" stroke="lightcyan" cx="27" cy="-588.59" rx="27" ry="19.6"/>
<text text-anchor="start" x="17" y="-585.19" font-family="Times,serif" font-style="italic" font-size="18.00">V</text>
<text text-anchor="start" x="29" y="-585.19" font-family="Times,serif" baseline-shift="sub" font-size="18.00">6</text>
</g>
<!-- g18676&#45;&gt;g18682 -->
<g id="edge12" class="edge">
<title>g18676&#45;&gt;g18682</title>
<path fill="none" stroke="black" stroke-width="0.2" d="M44.5,-573.28C64.96,-556.55 98.69,-528.96 119.84,-511.67"/>
<polygon fill="black" stroke="black" stroke-width="0.2" points="122.35,-509.61 120.89,-512.55 121.19,-510.56 120.03,-511.51 120.03,-511.51 120.03,-511.51 121.19,-510.56 119.18,-510.46 122.35,-509.61 122.35,-509.61"/>
</g>
<!-- g18676&#45;&gt;g18691 -->
<g id="edge14" class="edge">
<title>g18676&#45;&gt;g18691</title>
<path fill="none" stroke="black" stroke-width="0.2" d="M13.86,-570.95C9.88,-564.95 6.04,-557.89 4,-550.79 0.26,-537.77 5.71,-523.29 11.71,-512.49"/>
<polygon fill="black" stroke="black" stroke-width="0.2" points="13.25,-509.83 12.92,-513.1 12.5,-511.13 11.75,-512.43 11.75,-512.43 11.75,-512.43 12.5,-511.13 10.58,-511.75 13.25,-509.83 13.25,-509.83"/>
</g>
<!-- g18694 -->
<g id="node15" class="node">
<title>g18694</title>
<polygon fill="lightpink" stroke="lightpink" points="142,-415.9 106,-415.9 106,-386.9 142,-386.9 142,-415.9"/>
<text text-anchor="start" x="114.5" y="-398" font-family="Times,serif" font-weight="bold" font-size="18.00">⊗</text>
</g>
<!-- g18682&#45;&gt;g18694 -->
<g id="edge15" class="edge">
<title>g18682&#45;&gt;g18694</title>
<path fill="none" stroke="black" stroke-width="0.2" d="M136.79,-480.48C134.13,-464.24 129.67,-436.99 126.78,-419.36"/>
<polygon fill="black" stroke="black" stroke-width="0.2" points="126.22,-415.97 128.04,-418.71 126.46,-417.45 126.71,-418.93 126.71,-418.93 126.71,-418.93 126.46,-417.45 125.38,-419.15 126.22,-415.97 126.22,-415.97"/>
</g>
<!-- g18682&#45;&gt;g18698 -->
<g id="edge26" class="edge">
<title>g18682&#45;&gt;g18698</title>
<path fill="none" stroke="black" stroke-width="0.2" d="M144.75,-480.48C151.72,-464.11 163.46,-436.54 170.96,-418.92"/>
<polygon fill="black" stroke="black" stroke-width="0.2" points="172.22,-415.97 172.29,-419.26 171.63,-417.35 171.05,-418.73 171.05,-418.73 171.05,-418.73 171.63,-417.35 169.8,-418.2 172.22,-415.97 172.22,-415.97"/>
</g>
<!-- g18691&#45;&gt;g18694 -->
<g id="edge16" class="edge">
<title>g18691&#45;&gt;g18694</title>
<path fill="none" stroke="black" stroke-width="0.2" d="M37.9,-480.48C56.25,-463.84 87.36,-435.63 106.73,-418.06"/>
<polygon fill="black" stroke="black" stroke-width="0.2" points="109.04,-415.97 107.72,-418.98 107.92,-416.98 106.81,-417.98 106.81,-417.98 106.81,-417.98 107.92,-416.98 105.91,-416.98 109.04,-415.97 109.04,-415.97"/>
</g>
<!-- g18691&#45;&gt;g18702 -->
<g id="edge29" class="edge">
<title>g18691&#45;&gt;g18702</title>
<path fill="none" stroke="black" stroke-width="0.2" d="M25.87,-480.08C28.48,-468.76 32.87,-452.52 39,-439.2 42.23,-432.16 46.68,-424.92 50.86,-418.74"/>
<polygon fill="black" stroke="black" stroke-width="0.2" points="52.63,-416.16 52.05,-419.4 51.78,-417.4 50.93,-418.64 50.93,-418.64 50.93,-418.64 51.78,-417.4 49.82,-417.87 52.63,-416.16 52.63,-416.16"/>
</g>
<!-- g18714 -->
<g id="node17" class="node">
<title>g18714</title>
<polygon fill="darkturquoise" stroke="darkturquoise" points="279,-322.3 243,-322.3 243,-293.3 279,-293.3 279,-322.3"/>
<text text-anchor="start" x="251.5" y="-304.4" font-family="Times,serif" font-weight="bold" font-size="18.00">⊕</text>
</g>
<!-- g18694&#45;&gt;g18714 -->
<g id="edge19" class="edge">
<title>g18694&#45;&gt;g18714</title>
<path fill="none" stroke="black" stroke-width="0.2" d="M119.79,-386.51C117,-374.26 115.42,-356.68 125,-345.6 157.11,-308.45 188.51,-346.08 234,-327.6 236.43,-326.61 238.87,-325.37 241.22,-324"/>
<polygon fill="black" stroke="black" stroke-width="0.2" points="243.93,-322.34 242.08,-325.05 242.65,-323.12 241.37,-323.9 241.37,-323.9 241.37,-323.9 242.65,-323.12 240.67,-322.75 243.93,-322.34 243.93,-322.34"/>
<text text-anchor="middle" x="138" y="-350.8" font-family="Times,serif" font-size="16.00">&#45;1.0</text>
</g>
<!-- g18706&#45;&gt;g18714 -->
<g id="edge20" class="edge">
<title>g18706&#45;&gt;g18714</title>
<path fill="none" stroke="black" stroke-width="0.2" d="M255.44,-480.38C256.52,-447.2 259.27,-362.24 260.45,-325.81"/>
<polygon fill="black" stroke="black" stroke-width="0.2" points="260.56,-322.44 261.81,-325.48 260.51,-323.94 260.46,-325.44 260.46,-325.44 260.46,-325.44 260.51,-323.94 259.11,-325.39 260.56,-322.44 260.56,-322.44"/>
<text text-anchor="middle" x="271" y="-397.6" font-family="Times,serif" font-size="16.00">&#45;1.0</text>
</g>
<!-- g18715 -->
<g id="node20" class="node">
<title>g18715</title>
<polygon fill="lightpink" stroke="lightpink" points="256,-251 220,-251 220,-222 256,-222 256,-251"/>
<text text-anchor="start" x="228.5" y="-233.1" font-family="Times,serif" font-weight="bold" font-size="18.00">⊗</text>
</g>
<!-- g18714&#45;&gt;g18715 -->
<g id="edge21" class="edge">
<title>g18714&#45;&gt;g18715</title>
<path fill="none" stroke="black" stroke-width="0.2" d="M256.46,-293.11C252.74,-281.91 247.47,-266.03 243.51,-254.1"/>
<polygon fill="black" stroke="black" stroke-width="0.2" points="242.53,-251.16 244.76,-253.58 243.01,-252.59 243.48,-254.01 243.48,-254.01 243.48,-254.01 243.01,-252.59 242.2,-254.44 242.53,-251.16 242.53,-251.16"/>
</g>
<!-- g18708 -->
<g id="node18" class="node">
<title>g18708</title>
<ellipse fill="lightcyan" stroke="lightcyan" cx="198" cy="-307.8" rx="27" ry="19.6"/>
<text text-anchor="start" x="187.5" y="-304.4" font-family="Times,serif" font-style="italic" font-size="18.00">G</text>
<text text-anchor="start" x="200.5" y="-304.4" font-family="Times,serif" baseline-shift="sub" font-size="18.00">7</text>
</g>
<!-- g18708&#45;&gt;g18715 -->
<g id="edge22" class="edge">
<title>g18708&#45;&gt;g18715</title>
<path fill="none" stroke="black" stroke-width="0.2" d="M208.09,-289.31C214.41,-278.37 222.49,-264.37 228.66,-253.69"/>
<polygon fill="black" stroke="black" stroke-width="0.2" points="230.18,-251.05 229.85,-254.32 229.43,-252.35 228.68,-253.64 228.68,-253.64 228.68,-253.64 229.43,-252.35 227.51,-252.97 230.18,-251.05 230.18,-251.05"/>
</g>
<!-- g18711 -->
<g id="node25" class="node">
<title>g18711</title>
<polygon fill="lightpink" stroke="lightpink" points="190,-251 154,-251 154,-222 190,-222 190,-251"/>
<text text-anchor="start" x="162.5" y="-233.1" font-family="Times,serif" font-weight="bold" font-size="18.00">⊗</text>
</g>
<!-- g18708&#45;&gt;g18711 -->
<g id="edge33" class="edge">
<title>g18708&#45;&gt;g18711</title>
<path fill="none" stroke="black" stroke-width="0.2" d="M191.17,-288.59C187.15,-277.89 182.11,-264.46 178.21,-254.06"/>
<polygon fill="black" stroke="black" stroke-width="0.2" points="177.14,-251.21 179.46,-253.54 177.67,-252.61 178.2,-254.02 178.2,-254.02 178.2,-254.02 177.67,-252.61 176.93,-254.49 177.14,-251.21 177.14,-251.21"/>
</g>
<!-- g18709 -->
<g id="node19" class="node">
<title>g18709</title>
<ellipse fill="lightcyan" stroke="lightcyan" cx="126" cy="-307.8" rx="27" ry="19.6"/>
<text text-anchor="start" x="115.5" y="-304.4" font-family="Times,serif" font-style="italic" font-size="18.00">G</text>
<text text-anchor="start" x="128.5" y="-304.4" font-family="Times,serif" baseline-shift="sub" font-size="18.00">8</text>
</g>
<!-- g18709&#45;&gt;g18715 -->
<g id="edge23" class="edge">
<title>g18709&#45;&gt;g18715</title>
<path fill="none" stroke="black" stroke-width="0.2" d="M146.02,-294.41C166.05,-282.02 196.73,-263.03 217.08,-250.45"/>
<polygon fill="black" stroke="black" stroke-width="0.2" points="220,-248.64 218.16,-251.36 218.72,-249.43 217.45,-250.22 217.45,-250.22 217.45,-250.22 218.72,-249.43 216.74,-249.07 220,-248.64 220,-248.64"/>
</g>
<!-- g18709&#45;&gt;g18711 -->
<g id="edge34" class="edge">
<title>g18709&#45;&gt;g18711</title>
<path fill="none" stroke="black" stroke-width="0.2" d="M137.37,-289.67C144.63,-278.73 153.99,-264.63 161.15,-253.85"/>
<polygon fill="black" stroke="black" stroke-width="0.2" points="162.92,-251.19 162.38,-254.43 162.09,-252.44 161.26,-253.69 161.26,-253.69 161.26,-253.69 162.09,-252.44 160.13,-252.94 162.92,-251.19 162.92,-251.19"/>
</g>
<!-- g18715&#45;&gt;g18717 -->
<g id="edge25" class="edge">
<title>g18715&#45;&gt;g18717</title>
<path fill="none" stroke="black" stroke-width="0.2" d="M256.24,-221.93C270.03,-211.66 288.99,-197.55 303.34,-186.87"/>
<polygon fill="black" stroke="black" stroke-width="0.2" points="305.79,-185.05 304.19,-187.93 304.58,-185.95 303.38,-186.84 303.38,-186.84 303.38,-186.84 304.58,-185.95 302.58,-185.76 305.79,-185.05 305.79,-185.05"/>
</g>
<!-- g18722 -->
<g id="node27" class="node">
<title>g18722</title>
<polygon fill="darkturquoise" stroke="darkturquoise" points="342,-102 306,-102 306,-73 342,-73 342,-102"/>
<text text-anchor="start" x="314.5" y="-84.1" font-family="Times,serif" font-weight="bold" font-size="18.00">⊕</text>
</g>
<!-- g18717&#45;&gt;g18722 -->
<g id="edge37" class="edge">
<title>g18717&#45;&gt;g18722</title>
<path fill="none" stroke="black" stroke-width="0.2" d="M324,-155.76C324,-141.83 324,-120.25 324,-105.31"/>
<polygon fill="black" stroke="black" stroke-width="0.2" points="324,-102.04 325.35,-105.04 324,-103.54 324,-105.04 324,-105.04 324,-105.04 324,-103.54 322.65,-105.04 324,-102.04 324,-102.04"/>
</g>
<!-- g18710 -->
<g id="node24" class="node">
<title>g18710</title>
<polygon fill="darkturquoise" stroke="darkturquoise" points="81,-322.3 45,-322.3 45,-293.3 81,-293.3 81,-322.3"/>
<text text-anchor="start" x="53.5" y="-304.4" font-family="Times,serif" font-weight="bold" font-size="18.00">⊕</text>
</g>
<!-- g18698&#45;&gt;g18710 -->
<g id="edge30" class="edge">
<title>g18698&#45;&gt;g18710</title>
<path fill="none" stroke="black" stroke-width="0.2" d="M175.74,-386.71C172.98,-374.26 167.08,-356.23 155,-345.6 132.5,-325.79 117.13,-340.34 90,-327.6 87.87,-326.6 85.72,-325.43 83.62,-324.18"/>
<polygon fill="black" stroke="black" stroke-width="0.2" points="80.79,-322.42 84.05,-322.86 82.07,-323.21 83.34,-324 83.34,-324 83.34,-324 82.07,-323.21 82.63,-325.15 80.79,-322.42 80.79,-322.42"/>
<text text-anchor="middle" x="181" y="-350.8" font-family="Times,serif" font-size="16.00">&#45;1.0</text>
</g>
<!-- g18702&#45;&gt;g18710 -->
<g id="edge31" class="edge">
<title>g18702&#45;&gt;g18710</title>
<path fill="none" stroke="black" stroke-width="0.2" d="M63,-386.88C63,-370.65 63,-343.4 63,-325.76"/>
<polygon fill="black" stroke="black" stroke-width="0.2" points="63,-322.37 64.35,-325.37 63,-323.87 63,-325.37 63,-325.37 63,-325.37 63,-323.87 61.65,-325.37 63,-322.37 63,-322.37"/>
<text text-anchor="middle" x="76" y="-350.8" font-family="Times,serif" font-size="16.00">&#45;1.0</text>
</g>
<!-- g18710&#45;&gt;g18711 -->
<g id="edge32" class="edge">
<title>g18710&#45;&gt;g18711</title>
<path fill="none" stroke="black" stroke-width="0.2" d="M81.21,-293.92C84.13,-291.91 87.13,-289.88 90,-288 110.49,-274.57 134.39,-259.97 151.08,-249.94"/>
<polygon fill="black" stroke="black" stroke-width="0.2" points="153.9,-248.25 152.02,-250.95 152.62,-249.02 151.33,-249.79 151.33,-249.79 151.33,-249.79 152.62,-249.02 150.63,-248.63 153.9,-248.25 153.9,-248.25"/>
</g>
<!-- g18711&#45;&gt;g18719 -->
<g id="edge36" class="edge">
<title>g18711&#45;&gt;g18719</title>
<path fill="none" stroke="black" stroke-width="0.2" d="M190.43,-223.46C207.24,-212.49 232.03,-196.3 249.46,-184.91"/>
<polygon fill="black" stroke="black" stroke-width="0.2" points="251.98,-183.27 250.21,-186.04 250.72,-184.09 249.47,-184.91 249.47,-184.91 249.47,-184.91 250.72,-184.09 248.73,-183.78 251.98,-183.27 251.98,-183.27"/>
</g>
<!-- g18719&#45;&gt;g18722 -->
<g id="edge38" class="edge">
<title>g18719&#45;&gt;g18722</title>
<path fill="none" stroke="black" stroke-width="0.2" d="M275.26,-155.86C279.55,-145.55 286.16,-131.3 294,-120 297.77,-114.56 302.48,-109.15 307.04,-104.39"/>
<polygon fill="black" stroke="black" stroke-width="0.2" points="309.26,-102.11 308.13,-105.2 308.21,-103.19 307.16,-104.26 307.16,-104.26 307.16,-104.26 308.21,-103.19 306.2,-103.32 309.26,-102.11 309.26,-102.11"/>
<text text-anchor="middle" x="307" y="-125.2" font-family="Times,serif" font-size="16.00">&#45;0.5</text>
</g>
<!-- g18722&#45;&gt;ReturnNode -->
<g id="edge39" class="edge">
<title>g18722&#45;&gt;ReturnNode</title>
<path fill="none" stroke="black" stroke-width="0.2" d="M329.26,-72.84C332.95,-63.26 337.95,-50.29 342.11,-39.48"/>
<polygon fill="black" stroke="black" stroke-width="0.2" points="343.26,-36.49 343.44,-39.78 342.72,-37.89 342.18,-39.29 342.18,-39.29 342.18,-39.29 342.72,-37.89 340.92,-38.81 343.26,-36.49 343.26,-36.49"/>
</g>
</g>
</svg>
