<?xml version="1.0" encoding="UTF-8" standalone="no"?>
<!DOCTYPE svg PUBLIC "-//W3C//DTD SVG 1.1//EN"
 "http://www.w3.org/Graphics/SVG/1.1/DTD/svg11.dtd">
<!-- Generated by graphviz version 2.43.0 (0)
 -->
<!-- Title: ComputationalGraph Pages: 1 -->
<svg width="528pt" height="637pt"
 viewBox="0.00 0.00 528.00 637.39" xmlns="http://www.w3.org/2000/svg" xmlns:xlink="http://www.w3.org/1999/xlink">
<g id="graph0" class="graph" transform="scale(1 1) rotate(0) translate(4 633.39)">
<title>ComputationalGraph</title>
<polygon fill="white" stroke="transparent" points="-4,4 -4,-633.39 524,-633.39 524,4 -4,4"/>
<!-- ReturnNode -->
<g id="node1" class="node">
<title>ReturnNode</title>
<polygon fill="darkorange" stroke="black" points="435,-36 369,-36 369,0 435,0 435,-36"/>
<text text-anchor="middle" x="402" y="-13.6" font-family="Times,serif" font-size="18.00">Return</text>
</g>
<!-- g18636 -->
<g id="node2" class="node">
<title>g18636</title>
<ellipse fill="paleturquoise" stroke="black" cx="367" cy="-328.8" rx="27" ry="19.6"/>
<text text-anchor="start" x="356.5" y="-325.4" font-family="Times,serif" font-style="italic" font-size="18.00">G</text>
<text text-anchor="start" x="369.5" y="-325.4" font-family="Times,serif" baseline-shift="sub" font-size="18.00">1</text>
</g>
<!-- g18652 -->
<g id="node8" class="node">
<title>g18652</title>
<polygon fill="cornsilk" stroke="black" points="466,-272 412,-272 412,-236 466,-236 466,-272"/>
<text text-anchor="start" x="429.5" y="-249.6" font-family="Times,serif" font-size="18.00">⊗</text>
</g>
<!-- g18636&#45;&gt;g18652 -->
<g id="edge5" class="edge">
<title>g18636&#45;&gt;g18652</title>
<path fill="none" stroke="black" d="M382.27,-312.36C391.73,-302.8 404.08,-290.31 414.85,-279.42"/>
<polygon fill="black" stroke="black" points="421.99,-272.2 418.16,-282.47 418.47,-275.76 414.96,-279.31 414.96,-279.31 414.96,-279.31 418.47,-275.76 411.76,-276.15 421.99,-272.2 421.99,-272.2"/>
</g>
<!-- g18717 -->
<g id="node21" class="node">
<title>g18717</title>
<polygon fill="cornsilk" stroke="black" points="394,-199 340,-199 340,-163 394,-163 394,-199"/>
<text text-anchor="start" x="357.5" y="-176.6" font-family="Times,serif" font-size="18.00">⊗</text>
</g>
<!-- g18636&#45;&gt;g18717 -->
<g id="edge24" class="edge">
<title>g18636&#45;&gt;g18717</title>
<path fill="none" stroke="black" d="M367,-308.74C367,-283.41 367,-238.5 367,-209.51"/>
<polygon fill="black" stroke="black" points="367,-199.25 371.5,-209.25 367,-204.25 367,-209.25 367,-209.25 367,-209.25 367,-204.25 362.5,-209.25 367,-199.25 367,-199.25"/>
</g>
<!-- g18719 -->
<g id="node26" class="node">
<title>g18719</title>
<polygon fill="cornsilk" stroke="black" points="322,-199 268,-199 268,-163 322,-163 322,-199"/>
<text text-anchor="start" x="285.5" y="-176.6" font-family="Times,serif" font-size="18.00">⊗</text>
</g>
<!-- g18636&#45;&gt;g18719 -->
<g id="edge35" class="edge">
<title>g18636&#45;&gt;g18719</title>
<path fill="none" stroke="black" d="M358.17,-309.92C345.62,-284.51 322.54,-237.76 308.02,-208.37"/>
<polygon fill="black" stroke="black" points="303.45,-199.12 311.92,-206.09 305.67,-203.6 307.88,-208.08 307.88,-208.08 307.88,-208.08 305.67,-203.6 303.85,-210.08 303.45,-199.12 303.45,-199.12"/>
</g>
<!-- g18643 -->
<g id="node3" class="node">
<title>g18643</title>
<ellipse fill="paleturquoise" stroke="black" cx="439" cy="-515.99" rx="27" ry="19.6"/>
<text text-anchor="start" x="428.5" y="-512.59" font-family="Times,serif" font-style="italic" font-size="18.00">G</text>
<text text-anchor="start" x="441.5" y="-512.59" font-family="Times,serif" baseline-shift="sub" font-size="18.00">2</text>
</g>
<!-- g18644 -->
<g id="node5" class="node">
<title>g18644</title>
<polygon fill="cornsilk" stroke="black" points="394,-440.4 340,-440.4 340,-404.4 394,-404.4 394,-440.4"/>
<text text-anchor="start" x="357.5" y="-418" font-family="Times,serif" font-size="18.00">⊗</text>
</g>
<!-- g18643&#45;&gt;g18644 -->
<g id="edge1" class="edge">
<title>g18643&#45;&gt;g18644</title>
<path fill="none" stroke="black" d="M426.26,-498.11C418,-487.22 406.96,-472.8 397,-460.2 393.96,-456.36 390.72,-452.32 387.54,-448.38"/>
<polygon fill="black" stroke="black" points="381.15,-440.53 390.95,-445.45 384.31,-444.41 387.46,-448.29 387.46,-448.29 387.46,-448.29 384.31,-444.41 383.97,-451.13 381.15,-440.53 381.15,-440.53"/>
</g>
<!-- g18637 -->
<g id="node4" class="node">
<title>g18637</title>
<ellipse fill="paleturquoise" stroke="black" cx="367" cy="-515.99" rx="27" ry="19.6"/>
<text text-anchor="start" x="357" y="-512.59" font-family="Times,serif" font-style="italic" font-size="18.00">V</text>
<text text-anchor="start" x="369" y="-512.59" font-family="Times,serif" baseline-shift="sub" font-size="18.00">3</text>
</g>
<!-- g18637&#45;&gt;g18644 -->
<g id="edge2" class="edge">
<title>g18637&#45;&gt;g18644</title>
<path fill="none" stroke="black" d="M367,-496.02C367,-482.86 367,-465.14 367,-450.51"/>
<polygon fill="black" stroke="black" points="367,-440.5 371.5,-450.5 367,-445.5 367,-450.5 367,-450.5 367,-450.5 367,-445.5 362.5,-450.5 367,-440.5 367,-440.5"/>
<text text-anchor="middle" x="380" y="-465.4" font-family="Times,serif" font-size="16.00">&#45;1.0</text>
</g>
<!-- g18651 -->
<g id="node7" class="node">
<title>g18651</title>
<polygon fill="cornsilk" stroke="black" points="466,-346.8 412,-346.8 412,-310.8 466,-310.8 466,-346.8"/>
<text text-anchor="start" x="429.5" y="-324.4" font-family="Times,serif" font-size="18.00">⊗</text>
</g>
<!-- g18644&#45;&gt;g18651 -->
<g id="edge3" class="edge">
<title>g18644&#45;&gt;g18651</title>
<path fill="none" stroke="black" d="M380.54,-404.17C391.4,-390.35 406.81,-370.76 419.07,-355.15"/>
<polygon fill="black" stroke="black" points="425.52,-346.95 422.88,-357.59 422.43,-350.88 419.34,-354.81 419.34,-354.81 419.34,-354.81 422.43,-350.88 415.8,-352.03 425.52,-346.95 425.52,-346.95"/>
</g>
<!-- g18650 -->
<g id="node6" class="node">
<title>g18650</title>
<ellipse fill="paleturquoise" stroke="black" cx="439" cy="-422.4" rx="27" ry="19.6"/>
<text text-anchor="start" x="428.5" y="-419" font-family="Times,serif" font-style="italic" font-size="18.00">G</text>
<text text-anchor="start" x="441.5" y="-419" font-family="Times,serif" baseline-shift="sub" font-size="18.00">4</text>
</g>
<!-- g18650&#45;&gt;g18651 -->
<g id="edge4" class="edge">
<title>g18650&#45;&gt;g18651</title>
<path fill="none" stroke="black" d="M439,-402.42C439,-389.26 439,-371.55 439,-356.91"/>
<polygon fill="black" stroke="black" points="439,-346.9 443.5,-356.9 439,-351.9 439,-356.9 439,-356.9 439,-356.9 439,-351.9 434.5,-356.9 439,-346.9 439,-346.9"/>
</g>
<!-- g18651&#45;&gt;g18652 -->
<g id="edge6" class="edge">
<title>g18651&#45;&gt;g18652</title>
<path fill="none" stroke="black" d="M439,-310.55C439,-302.12 439,-291.77 439,-282.3"/>
<polygon fill="black" stroke="black" points="439,-272.13 443.5,-282.13 439,-277.13 439,-282.13 439,-282.13 439,-282.13 439,-277.13 434.5,-282.13 439,-272.13 439,-272.13"/>
</g>
<!-- g18653 -->
<g id="node10" class="node">
<title>g18653</title>
<polygon fill="cornsilk" stroke="black" points="466,-199 412,-199 412,-163 466,-163 466,-199"/>
<text text-anchor="start" x="429.5" y="-176.6" font-family="Times,serif" font-size="18.00">⊗</text>
</g>
<!-- g18652&#45;&gt;g18653 -->
<g id="edge7" class="edge">
<title>g18652&#45;&gt;g18653</title>
<path fill="none" stroke="black" d="M439,-235.81C439,-227.79 439,-218.05 439,-209.07"/>
<polygon fill="black" stroke="black" points="439,-199.03 443.5,-209.03 439,-204.03 439,-209.03 439,-209.03 439,-209.03 439,-204.03 434.5,-209.03 439,-199.03 439,-199.03"/>
</g>
<!-- g18630 -->
<g id="node9" class="node">
<title>g18630</title>
<ellipse fill="paleturquoise" stroke="black" cx="224" cy="-609.59" rx="27" ry="19.6"/>
<text text-anchor="start" x="214" y="-606.19" font-family="Times,serif" font-style="italic" font-size="18.00">V</text>
<text text-anchor="start" x="226" y="-606.19" font-family="Times,serif" baseline-shift="sub" font-size="18.00">5</text>
</g>
<!-- g18630&#45;&gt;g18653 -->
<g id="edge8" class="edge">
<title>g18630&#45;&gt;g18653</title>
<path fill="none" stroke="black" d="M250.88,-605.31C319.17,-596.22 494,-567.98 494,-516.99 494,-516.99 494,-516.99 494,-253 494,-234.75 482.51,-218.35 470.03,-205.92"/>
<polygon fill="black" stroke="black" points="462.64,-199.08 473.04,-202.58 466.31,-202.48 469.98,-205.88 469.98,-205.88 469.98,-205.88 466.31,-202.48 466.92,-209.18 462.64,-199.08 462.64,-199.08"/>
<text text-anchor="middle" x="507" y="-371.8" font-family="Times,serif" font-size="16.00">&#45;1.0</text>
</g>
<!-- g18682 -->
<g id="node13" class="node">
<title>g18682</title>
<polygon fill="cyan" stroke="black" points="188,-533.99 134,-533.99 134,-497.99 188,-497.99 188,-533.99"/>
<text text-anchor="start" x="151.5" y="-511.59" font-family="Times,serif" font-size="18.00">⊕</text>
</g>
<!-- g18630&#45;&gt;g18682 -->
<g id="edge11" class="edge">
<title>g18630&#45;&gt;g18682</title>
<path fill="none" stroke="black" d="M205.63,-594.63C198.19,-588.28 189.97,-580.29 184,-571.79 178.08,-563.36 173.28,-553.17 169.62,-543.87"/>
<polygon fill="black" stroke="black" points="166.11,-534.26 173.77,-542.11 167.82,-538.96 169.54,-543.65 169.54,-543.65 169.54,-543.65 167.82,-538.96 165.32,-545.2 166.11,-534.26 166.11,-534.26"/>
<text text-anchor="middle" x="197" y="-558.99" font-family="Times,serif" font-size="16.00">&#45;1.0</text>
</g>
<!-- g18691 -->
<g id="node14" class="node">
<title>g18691</title>
<polygon fill="cyan" stroke="black" points="54,-533.99 0,-533.99 0,-497.99 54,-497.99 54,-533.99"/>
<text text-anchor="start" x="17.5" y="-511.59" font-family="Times,serif" font-size="18.00">⊕</text>
</g>
<!-- g18630&#45;&gt;g18691 -->
<g id="edge13" class="edge">
<title>g18630&#45;&gt;g18691</title>
<path fill="none" stroke="black" d="M197.26,-605.74C154.95,-600.75 75.08,-589.28 53,-571.79 44.15,-564.78 38.15,-554.03 34.17,-543.9"/>
<polygon fill="black" stroke="black" points="30.83,-534.14 38.32,-542.14 32.44,-538.87 34.06,-543.6 34.06,-543.6 34.06,-543.6 32.44,-538.87 29.81,-545.05 30.83,-534.14 30.83,-534.14"/>
<text text-anchor="middle" x="66" y="-558.99" font-family="Times,serif" font-size="16.00">&#45;1.0</text>
</g>
<!-- g18706 -->
<g id="node16" class="node">
<title>g18706</title>
<polygon fill="cornsilk" stroke="black" points="322,-533.99 268,-533.99 268,-497.99 322,-497.99 322,-533.99"/>
<text text-anchor="start" x="285.5" y="-511.59" font-family="Times,serif" font-size="18.00">⊗</text>
</g>
<!-- g18630&#45;&gt;g18706 -->
<g id="edge17" class="edge">
<title>g18630&#45;&gt;g18706</title>
<path fill="none" stroke="black" d="M247.59,-599.67C260.28,-593.68 275.12,-584.52 284,-571.79 289.57,-563.82 292.46,-553.68 293.92,-544.3"/>
<polygon fill="black" stroke="black" points="295.03,-534.19 298.41,-544.62 294.48,-539.16 293.94,-544.13 293.94,-544.13 293.94,-544.13 294.48,-539.16 289.47,-543.64 295.03,-534.19 295.03,-534.19"/>
<text text-anchor="middle" x="304" y="-558.99" font-family="Times,serif" font-size="16.00">&#45;1.0</text>
</g>
<!-- g18630&#45;&gt;g18706 -->
<g id="edge18" class="edge">
<title>g18630&#45;&gt;g18706</title>
<path fill="none" stroke="black" d="M231.92,-590.63C237.29,-579.45 245.04,-565.1 254,-553.79 257.49,-549.39 261.54,-545.07 265.7,-541.03"/>
<polygon fill="black" stroke="black" points="273.23,-534.09 268.93,-544.17 269.56,-537.48 265.88,-540.86 265.88,-540.86 265.88,-540.86 269.56,-537.48 262.83,-537.55 273.23,-534.09 273.23,-534.09"/>
<text text-anchor="middle" x="267" y="-558.99" font-family="Times,serif" font-size="16.00">&#45;1.0</text>
</g>
<!-- g18698 -->
<g id="node22" class="node">
<title>g18698</title>
<polygon fill="cornsilk" stroke="black" points="251,-440.4 197,-440.4 197,-404.4 251,-404.4 251,-440.4"/>
<text text-anchor="start" x="214.5" y="-418" font-family="Times,serif" font-size="18.00">⊗</text>
</g>
<!-- g18630&#45;&gt;g18698 -->
<g id="edge27" class="edge">
<title>g18630&#45;&gt;g18698</title>
<path fill="none" stroke="black" d="M224,-589.47C224,-556.5 224,-488.84 224,-450.84"/>
<polygon fill="black" stroke="black" points="224,-440.52 228.5,-450.52 224,-445.52 224,-450.52 224,-450.52 224,-450.52 224,-445.52 219.5,-450.52 224,-440.52 224,-440.52"/>
<text text-anchor="middle" x="237" y="-512.19" font-family="Times,serif" font-size="16.00">&#45;1.0</text>
</g>
<!-- g18702 -->
<g id="node23" class="node">
<title>g18702</title>
<polygon fill="cornsilk" stroke="black" points="106,-440.4 52,-440.4 52,-404.4 106,-404.4 106,-440.4"/>
<text text-anchor="start" x="69.5" y="-418" font-family="Times,serif" font-size="18.00">⊗</text>
</g>
<!-- g18630&#45;&gt;g18702 -->
<g id="edge28" class="edge">
<title>g18630&#45;&gt;g18702</title>
<path fill="none" stroke="black" d="M199.44,-601.32C170.55,-591.41 123.45,-570.79 99,-535.79 81.5,-510.74 77.82,-475.1 77.67,-450.7"/>
<polygon fill="black" stroke="black" points="77.8,-440.69 82.17,-450.74 77.73,-445.68 77.67,-450.68 77.67,-450.68 77.67,-450.68 77.73,-445.68 73.17,-450.63 77.8,-440.69 77.8,-440.69"/>
<text text-anchor="middle" x="112" y="-512.19" font-family="Times,serif" font-size="16.00">&#45;1.0</text>
</g>
<!-- g18721 -->
<g id="node11" class="node">
<title>g18721</title>
<polygon fill="cyan" stroke="black" points="466,-109 412,-109 412,-73 466,-73 466,-109"/>
<text text-anchor="start" x="429.5" y="-86.6" font-family="Times,serif" font-size="18.00">⊕</text>
</g>
<!-- g18653&#45;&gt;g18721 -->
<g id="edge9" class="edge">
<title>g18653&#45;&gt;g18721</title>
<path fill="none" stroke="black" d="M439,-162.61C439,-150.24 439,-133.37 439,-119.22"/>
<polygon fill="black" stroke="black" points="439,-109.05 443.5,-119.05 439,-114.05 439,-119.05 439,-119.05 439,-119.05 439,-114.05 434.5,-119.05 439,-109.05 439,-109.05"/>
</g>
<!-- g18721&#45;&gt;ReturnNode -->
<g id="edge10" class="edge">
<title>g18721&#45;&gt;ReturnNode</title>
<path fill="none" stroke="black" d="M430.04,-72.81C425.68,-64.44 420.34,-54.2 415.5,-44.9"/>
<polygon fill="black" stroke="black" points="410.87,-36.03 419.49,-42.82 413.18,-40.46 415.5,-44.9 415.5,-44.9 415.5,-44.9 413.18,-40.46 411.5,-46.98 410.87,-36.03 410.87,-36.03"/>
</g>
<!-- g18676 -->
<g id="node12" class="node">
<title>g18676</title>
<ellipse fill="paleturquoise" stroke="black" cx="31" cy="-609.59" rx="27" ry="19.6"/>
<text text-anchor="start" x="21" y="-606.19" font-family="Times,serif" font-style="italic" font-size="18.00">V</text>
<text text-anchor="start" x="33" y="-606.19" font-family="Times,serif" baseline-shift="sub" font-size="18.00">6</text>
</g>
<!-- g18676&#45;&gt;g18682 -->
<g id="edge12" class="edge">
<title>g18676&#45;&gt;g18682</title>
<path fill="none" stroke="black" d="M49.9,-595.27C70.44,-580.8 103.62,-557.42 128.38,-539.98"/>
<polygon fill="black" stroke="black" points="136.76,-534.08 131.17,-543.52 132.67,-536.96 128.58,-539.84 128.58,-539.84 128.58,-539.84 132.67,-536.96 125.99,-536.16 136.76,-534.08 136.76,-534.08"/>
</g>
<!-- g18676&#45;&gt;g18691 -->
<g id="edge14" class="edge">
<title>g18676&#45;&gt;g18691</title>
<path fill="none" stroke="black" d="M17.86,-591.95C13.88,-585.95 10.04,-578.89 8,-571.79 5.31,-562.41 7.38,-552.28 10.99,-543.31"/>
<polygon fill="black" stroke="black" points="15.37,-534.12 15.13,-545.08 13.22,-538.63 11.07,-543.15 11.07,-543.15 11.07,-543.15 13.22,-538.63 7.01,-541.21 15.37,-534.12 15.37,-534.12"/>
</g>
<!-- g18694 -->
<g id="node15" class="node">
<title>g18694</title>
<polygon fill="cornsilk" stroke="black" points="179,-440.4 125,-440.4 125,-404.4 179,-404.4 179,-440.4"/>
<text text-anchor="start" x="142.5" y="-418" font-family="Times,serif" font-size="18.00">⊗</text>
</g>
<!-- g18682&#45;&gt;g18694 -->
<g id="edge15" class="edge">
<title>g18682&#45;&gt;g18694</title>
<path fill="none" stroke="black" d="M159.31,-497.77C158.01,-484.59 156.2,-466.16 154.71,-450.94"/>
<polygon fill="black" stroke="black" points="153.69,-440.55 159.14,-450.06 154.17,-445.52 154.66,-450.5 154.66,-450.5 154.66,-450.5 154.17,-445.52 150.18,-450.94 153.69,-440.55 153.69,-440.55"/>
</g>
<!-- g18682&#45;&gt;g18698 -->
<g id="edge26" class="edge">
<title>g18682&#45;&gt;g18698</title>
<path fill="none" stroke="black" d="M172.85,-497.77C182.27,-484.08 195.58,-464.72 206.27,-449.18"/>
<polygon fill="black" stroke="black" points="212.2,-440.55 210.24,-451.34 209.37,-444.67 206.54,-448.79 206.54,-448.79 206.54,-448.79 209.37,-444.67 202.83,-446.24 212.2,-440.55 212.2,-440.55"/>
</g>
<!-- g18691&#45;&gt;g18694 -->
<g id="edge16" class="edge">
<title>g18691&#45;&gt;g18694</title>
<path fill="none" stroke="black" d="M50.22,-497.98C69.91,-483.55 98.36,-462.7 120.18,-446.71"/>
<polygon fill="black" stroke="black" points="128.48,-440.63 123.08,-450.17 124.45,-443.59 120.42,-446.54 120.42,-446.54 120.42,-446.54 124.45,-443.59 117.76,-442.91 128.48,-440.63 128.48,-440.63"/>
</g>
<!-- g18691&#45;&gt;g18702 -->
<g id="edge29" class="edge">
<title>g18691&#45;&gt;g18702</title>
<path fill="none" stroke="black" d="M32.04,-497.53C35.63,-486.42 41.06,-471.95 48,-460.2 50.36,-456.2 53.15,-452.21 56.07,-448.41"/>
<polygon fill="black" stroke="black" points="62.58,-440.46 59.73,-451.05 59.42,-444.33 56.25,-448.2 56.25,-448.2 56.25,-448.2 59.42,-444.33 52.77,-445.35 62.58,-440.46 62.58,-440.46"/>
</g>
<!-- g18710 -->
<g id="node17" class="node">
<title>g18710</title>
<polygon fill="cyan" stroke="black" points="322,-346.8 268,-346.8 268,-310.8 322,-310.8 322,-346.8"/>
<text text-anchor="start" x="285.5" y="-324.4" font-family="Times,serif" font-size="18.00">⊕</text>
</g>
<!-- g18694&#45;&gt;g18710 -->
<g id="edge19" class="edge">
<title>g18694&#45;&gt;g18710</title>
<path fill="none" stroke="black" d="M153.17,-404.35C154.93,-392.09 159.3,-376.11 170,-366.6 197.99,-341.73 217.91,-359.11 258.07,-348.11"/>
<polygon fill="black" stroke="black" points="267.84,-344.99 259.68,-352.32 263.08,-346.51 258.32,-348.03 258.32,-348.03 258.32,-348.03 263.08,-346.51 256.95,-343.75 267.84,-344.99 267.84,-344.99"/>
<text text-anchor="middle" x="183" y="-371.8" font-family="Times,serif" font-size="16.00">&#45;1.0</text>
</g>
<!-- g18706&#45;&gt;g18710 -->
<g id="edge20" class="edge">
<title>g18706&#45;&gt;g18710</title>
<path fill="none" stroke="black" d="M295,-497.9C295,-465.66 295,-395.6 295,-356.88"/>
<polygon fill="black" stroke="black" points="295,-346.85 299.5,-356.85 295,-351.85 295,-356.85 295,-356.85 295,-356.85 295,-351.85 290.5,-356.85 295,-346.85 295,-346.85"/>
<text text-anchor="middle" x="308" y="-418.6" font-family="Times,serif" font-size="16.00">&#45;1.0</text>
</g>
<!-- g18711 -->
<g id="node20" class="node">
<title>g18711</title>
<polygon fill="cornsilk" stroke="black" points="276,-272 222,-272 222,-236 276,-236 276,-272"/>
<text text-anchor="start" x="239.5" y="-249.6" font-family="Times,serif" font-size="18.00">⊗</text>
</g>
<!-- g18710&#45;&gt;g18711 -->
<g id="edge21" class="edge">
<title>g18710&#45;&gt;g18711</title>
<path fill="none" stroke="black" d="M284.1,-310.55C278.48,-301.66 271.53,-290.65 265.29,-280.78"/>
<polygon fill="black" stroke="black" points="259.82,-272.13 268.97,-278.18 262.49,-276.36 265.16,-280.58 265.16,-280.58 265.16,-280.58 262.49,-276.36 261.36,-282.99 259.82,-272.13 259.82,-272.13"/>
</g>
<!-- g18708 -->
<g id="node18" class="node">
<title>g18708</title>
<ellipse fill="paleturquoise" stroke="black" cx="223" cy="-328.8" rx="27" ry="19.6"/>
<text text-anchor="start" x="212.5" y="-325.4" font-family="Times,serif" font-style="italic" font-size="18.00">G</text>
<text text-anchor="start" x="225.5" y="-325.4" font-family="Times,serif" baseline-shift="sub" font-size="18.00">7</text>
</g>
<!-- g18708&#45;&gt;g18711 -->
<g id="edge22" class="edge">
<title>g18708&#45;&gt;g18711</title>
<path fill="none" stroke="black" d="M229.56,-309.43C232.57,-301.02 236.18,-290.88 239.48,-281.65"/>
<polygon fill="black" stroke="black" points="242.89,-272.11 243.76,-283.05 241.21,-276.82 239.52,-281.53 239.52,-281.53 239.52,-281.53 241.21,-276.82 235.29,-280.02 242.89,-272.11 242.89,-272.11"/>
</g>
<!-- g18715 -->
<g id="node25" class="node">
<title>g18715</title>
<polygon fill="cornsilk" stroke="black" points="203,-272 149,-272 149,-236 203,-236 203,-272"/>
<text text-anchor="start" x="166.5" y="-249.6" font-family="Times,serif" font-size="18.00">⊗</text>
</g>
<!-- g18708&#45;&gt;g18715 -->
<g id="edge33" class="edge">
<title>g18708&#45;&gt;g18715</title>
<path fill="none" stroke="black" d="M211.86,-310.55C206.13,-301.66 199.02,-290.65 192.64,-280.78"/>
<polygon fill="black" stroke="black" points="187.06,-272.13 196.26,-278.09 189.77,-276.33 192.48,-280.53 192.48,-280.53 192.48,-280.53 189.77,-276.33 188.7,-282.97 187.06,-272.13 187.06,-272.13"/>
</g>
<!-- g18709 -->
<g id="node19" class="node">
<title>g18709</title>
<ellipse fill="paleturquoise" stroke="black" cx="151" cy="-328.8" rx="27" ry="19.6"/>
<text text-anchor="start" x="140.5" y="-325.4" font-family="Times,serif" font-style="italic" font-size="18.00">G</text>
<text text-anchor="start" x="153.5" y="-325.4" font-family="Times,serif" baseline-shift="sub" font-size="18.00">8</text>
</g>
<!-- g18709&#45;&gt;g18711 -->
<g id="edge23" class="edge">
<title>g18709&#45;&gt;g18711</title>
<path fill="none" stroke="black" d="M169.43,-314.11C182.91,-304.1 201.51,-290.28 217.35,-278.51"/>
<polygon fill="black" stroke="black" points="225.81,-272.23 220.46,-281.8 221.79,-275.21 217.78,-278.19 217.78,-278.19 217.78,-278.19 221.79,-275.21 215.1,-274.58 225.81,-272.23 225.81,-272.23"/>
</g>
<!-- g18709&#45;&gt;g18715 -->
<g id="edge34" class="edge">
<title>g18709&#45;&gt;g18715</title>
<path fill="none" stroke="black" d="M157.31,-309.43C160.2,-301.02 163.68,-290.88 166.85,-281.65"/>
<polygon fill="black" stroke="black" points="170.12,-272.11 171.13,-283.03 168.5,-276.84 166.87,-281.57 166.87,-281.57 166.87,-281.57 168.5,-276.84 162.62,-280.11 170.12,-272.11 170.12,-272.11"/>
</g>
<!-- g18711&#45;&gt;g18717 -->
<g id="edge25" class="edge">
<title>g18711&#45;&gt;g18717</title>
<path fill="none" stroke="black" d="M276.07,-236.71C292.3,-226.95 313.13,-214.41 330.76,-203.81"/>
<polygon fill="black" stroke="black" points="339.65,-198.46 333.4,-207.47 335.36,-201.04 331.08,-203.61 331.08,-203.61 331.08,-203.61 335.36,-201.04 328.76,-199.76 339.65,-198.46 339.65,-198.46"/>
</g>
<!-- g18722 -->
<g id="node27" class="node">
<title>g18722</title>
<polygon fill="cyan" stroke="black" points="394,-109 340,-109 340,-73 394,-73 394,-109"/>
<text text-anchor="start" x="357.5" y="-86.6" font-family="Times,serif" font-size="18.00">⊕</text>
</g>
<!-- g18717&#45;&gt;g18722 -->
<g id="edge37" class="edge">
<title>g18717&#45;&gt;g18722</title>
<path fill="none" stroke="black" d="M367,-162.61C367,-150.24 367,-133.37 367,-119.22"/>
<polygon fill="black" stroke="black" points="367,-109.05 371.5,-119.05 367,-114.05 367,-119.05 367,-119.05 367,-119.05 367,-114.05 362.5,-119.05 367,-109.05 367,-109.05"/>
</g>
<!-- g18714 -->
<g id="node24" class="node">
<title>g18714</title>
<polygon fill="cyan" stroke="black" points="106,-346.8 52,-346.8 52,-310.8 106,-310.8 106,-346.8"/>
<text text-anchor="start" x="69.5" y="-324.4" font-family="Times,serif" font-size="18.00">⊕</text>
</g>
<!-- g18698&#45;&gt;g18714 -->
<g id="edge30" class="edge">
<title>g18698&#45;&gt;g18714</title>
<path fill="none" stroke="black" d="M219.51,-404.26C215.4,-391.95 208.08,-375.95 196,-366.6 169.11,-345.79 152.4,-358.8 115.9,-348.18"/>
<polygon fill="black" stroke="black" points="106.18,-344.93 117.09,-343.83 110.92,-346.52 115.67,-348.1 115.67,-348.1 115.67,-348.1 110.92,-346.52 114.24,-352.37 106.18,-344.93 106.18,-344.93"/>
<text text-anchor="middle" x="224" y="-371.8" font-family="Times,serif" font-size="16.00">&#45;1.0</text>
</g>
<!-- g18702&#45;&gt;g18714 -->
<g id="edge31" class="edge">
<title>g18702&#45;&gt;g18714</title>
<path fill="none" stroke="black" d="M79,-404.17C79,-390.99 79,-372.56 79,-357.34"/>
<polygon fill="black" stroke="black" points="79,-346.95 83.5,-356.95 79,-351.95 79,-356.95 79,-356.95 79,-356.95 79,-351.95 74.5,-356.95 79,-346.95 79,-346.95"/>
<text text-anchor="middle" x="92" y="-371.8" font-family="Times,serif" font-size="16.00">&#45;1.0</text>
</g>
<!-- g18714&#45;&gt;g18715 -->
<g id="edge32" class="edge">
<title>g18714&#45;&gt;g18715</title>
<path fill="none" stroke="black" d="M101.99,-310.55C114.79,-300.94 130.91,-288.84 144.84,-278.39"/>
<polygon fill="black" stroke="black" points="153.18,-272.13 147.88,-281.73 149.18,-275.13 145.18,-278.13 145.18,-278.13 145.18,-278.13 149.18,-275.13 142.48,-274.53 153.18,-272.13 153.18,-272.13"/>
</g>
<!-- g18715&#45;&gt;g18719 -->
<g id="edge36" class="edge">
<title>g18715&#45;&gt;g18719</title>
<path fill="none" stroke="black" d="M203,-236.89C219.47,-227.06 240.73,-214.38 258.66,-203.68"/>
<polygon fill="black" stroke="black" points="267.69,-198.29 261.41,-207.28 263.4,-200.85 259.1,-203.42 259.1,-203.42 259.1,-203.42 263.4,-200.85 256.8,-199.55 267.69,-198.29 267.69,-198.29"/>
</g>
<!-- g18719&#45;&gt;g18722 -->
<g id="edge38" class="edge">
<title>g18719&#45;&gt;g18722</title>
<path fill="none" stroke="black" d="M308.45,-162.68C316.61,-152.26 327.29,-138.78 337,-127 339.69,-123.73 342.55,-120.33 345.39,-116.97"/>
<polygon fill="black" stroke="black" points="351.91,-109.33 348.84,-119.86 348.67,-113.14 345.42,-116.94 345.42,-116.94 345.42,-116.94 348.67,-113.14 342,-114.02 351.91,-109.33 351.91,-109.33"/>
<text text-anchor="middle" x="350" y="-132.2" font-family="Times,serif" font-size="16.00">&#45;0.5</text>
</g>
<!-- g18722&#45;&gt;ReturnNode -->
<g id="edge39" class="edge">
<title>g18722&#45;&gt;ReturnNode</title>
<path fill="none" stroke="black" d="M375.47,-72.81C379.56,-64.53 384.54,-54.41 389.09,-45.19"/>
<polygon fill="black" stroke="black" points="393.61,-36.03 393.22,-46.99 391.39,-40.51 389.18,-45 389.18,-45 389.18,-45 391.39,-40.51 385.15,-43.01 393.61,-36.03 393.61,-36.03"/>
</g>
</g>
</svg>
