<?xml version="1.0" encoding="UTF-8" standalone="no"?>
<!DOCTYPE svg PUBLIC "-//W3C//DTD SVG 1.1//EN"
 "http://www.w3.org/Graphics/SVG/1.1/DTD/svg11.dtd">
<!-- Generated by graphviz version 2.43.0 (0)
 -->
<!-- Title: ComputationalGraph Pages: 1 -->
<svg width="422pt" height="506pt"
 viewBox="0.00 0.00 422.00 506.20" xmlns="http://www.w3.org/2000/svg" xmlns:xlink="http://www.w3.org/1999/xlink">
<g id="graph0" class="graph" transform="scale(1 1) rotate(0) translate(4 502.2)">
<title>ComputationalGraph</title>
<polygon fill="white" stroke="transparent" points="-4,4 -4,-502.2 418,-502.2 418,4 -4,4"/>
<!-- ReturnNode -->
<g id="node1" class="node">
<title>ReturnNode</title>
<polygon fill="darkorange" stroke="black" points="224,-36 158,-36 158,0 224,0 224,-36"/>
<text text-anchor="middle" x="191" y="-13.6" font-family="Times,serif" font-size="18.00">Return</text>
</g>
<!-- g18673 -->
<g id="node2" class="node">
<title>g18673</title>
<ellipse fill="paleturquoise" stroke="black" cx="171" cy="-401.8" rx="27" ry="19.6"/>
<text text-anchor="start" x="160.5" y="-398.4" font-family="Times,serif" font-style="italic" font-size="18.00">G</text>
<text text-anchor="start" x="173.5" y="-398.4" font-family="Times,serif" baseline-shift="sub" font-size="18.00">1</text>
</g>
<!-- g18675 -->
<g id="node4" class="node">
<title>g18675</title>
<polygon fill="cornsilk" stroke="black" points="224,-328 170,-328 170,-292 224,-292 224,-328"/>
<text text-anchor="start" x="187.5" y="-305.6" font-family="Times,serif" font-size="18.00">⊗</text>
</g>
<!-- g18673&#45;&gt;g18675 -->
<g id="edge1" class="edge">
<title>g18673&#45;&gt;g18675</title>
<path fill="none" stroke="black" d="M176.39,-382.19C180.1,-369.38 185.09,-352.15 189.23,-337.85"/>
<polygon fill="black" stroke="black" points="192.06,-328.06 193.6,-338.92 190.67,-332.87 189.28,-337.67 189.28,-337.67 189.28,-337.67 190.67,-332.87 184.96,-336.42 192.06,-328.06 192.06,-328.06"/>
</g>
<!-- g18674 -->
<g id="node3" class="node">
<title>g18674</title>
<ellipse fill="paleturquoise" stroke="black" cx="243" cy="-401.8" rx="27" ry="19.6"/>
<text text-anchor="start" x="232.5" y="-398.4" font-family="Times,serif" font-style="italic" font-size="18.00">G</text>
<text text-anchor="start" x="245.5" y="-398.4" font-family="Times,serif" baseline-shift="sub" font-size="18.00">2</text>
</g>
<!-- g18674&#45;&gt;g18675 -->
<g id="edge2" class="edge">
<title>g18674&#45;&gt;g18675</title>
<path fill="none" stroke="black" d="M233.91,-383.06C227.21,-369.98 217.99,-351.97 210.43,-337.23"/>
<polygon fill="black" stroke="black" points="205.76,-328.1 214.32,-334.94 208.04,-332.55 210.32,-337 210.32,-337 210.32,-337 208.04,-332.55 206.31,-339.05 205.76,-328.1 205.76,-328.1"/>
</g>
<!-- g18693 -->
<g id="node12" class="node">
<title>g18693</title>
<polygon fill="cornsilk" stroke="black" points="246,-255 192,-255 192,-219 246,-219 246,-255"/>
<text text-anchor="start" x="209.5" y="-232.6" font-family="Times,serif" font-size="18.00">⊗</text>
</g>
<!-- g18675&#45;&gt;g18693 -->
<g id="edge9" class="edge">
<title>g18675&#45;&gt;g18693</title>
<path fill="none" stroke="black" d="M202.33,-291.81C204.84,-283.7 207.9,-273.84 210.7,-264.78"/>
<polygon fill="black" stroke="black" points="213.72,-255.03 215.06,-265.91 212.24,-259.8 210.76,-264.58 210.76,-264.58 210.76,-264.58 212.24,-259.8 206.47,-263.25 213.72,-255.03 213.72,-255.03"/>
</g>
<!-- g18695 -->
<g id="node16" class="node">
<title>g18695</title>
<polygon fill="cornsilk" stroke="black" points="174,-255 120,-255 120,-219 174,-219 174,-255"/>
<text text-anchor="start" x="137.5" y="-232.6" font-family="Times,serif" font-size="18.00">⊗</text>
</g>
<!-- g18675&#45;&gt;g18695 -->
<g id="edge17" class="edge">
<title>g18675&#45;&gt;g18695</title>
<path fill="none" stroke="black" d="M184.9,-291.81C178.88,-283.27 171.49,-272.77 164.83,-263.32"/>
<polygon fill="black" stroke="black" points="158.99,-255.03 168.43,-260.61 161.87,-259.12 164.75,-263.2 164.75,-263.2 164.75,-263.2 161.87,-259.12 161.07,-265.8 158.99,-255.03 158.99,-255.03"/>
</g>
<!-- g18676 -->
<g id="node5" class="node">
<title>g18676</title>
<ellipse fill="paleturquoise" stroke="black" cx="132" cy="-478.4" rx="27" ry="19.6"/>
<text text-anchor="start" x="122" y="-475" font-family="Times,serif" font-style="italic" font-size="18.00">V</text>
<text text-anchor="start" x="134" y="-475" font-family="Times,serif" baseline-shift="sub" font-size="18.00">3</text>
</g>
<!-- g18678 -->
<g id="node7" class="node">
<title>g18678</title>
<polygon fill="cornsilk" stroke="black" points="342,-419.8 288,-419.8 288,-383.8 342,-383.8 342,-419.8"/>
<text text-anchor="start" x="305.5" y="-397.4" font-family="Times,serif" font-size="18.00">⊗</text>
</g>
<!-- g18676&#45;&gt;g18678 -->
<g id="edge3" class="edge">
<title>g18676&#45;&gt;g18678</title>
<path fill="none" stroke="black" d="M153.27,-465.92C158.36,-463.37 163.82,-460.77 169,-458.6 213.78,-439.81 229.68,-441.53 278.24,-421.6"/>
<polygon fill="black" stroke="black" points="287.7,-417.62 280.23,-425.65 283.09,-419.56 278.48,-421.5 278.48,-421.5 278.48,-421.5 283.09,-419.56 276.73,-417.35 287.7,-417.62 287.7,-417.62"/>
</g>
<!-- g18682 -->
<g id="node13" class="node">
<title>g18682</title>
<polygon fill="cornsilk" stroke="black" points="54,-419.8 0,-419.8 0,-383.8 54,-383.8 54,-419.8"/>
<text text-anchor="start" x="17.5" y="-397.4" font-family="Times,serif" font-size="18.00">⊗</text>
</g>
<!-- g18676&#45;&gt;g18682 -->
<g id="edge11" class="edge">
<title>g18676&#45;&gt;g18682</title>
<path fill="none" stroke="black" d="M113.23,-464.06C98.32,-453.47 77.13,-438.42 59.49,-425.88"/>
<polygon fill="black" stroke="black" points="51.15,-419.96 61.91,-422.08 55.23,-422.85 59.31,-425.75 59.31,-425.75 59.31,-425.75 55.23,-422.85 56.7,-429.42 51.15,-419.96 51.15,-419.96"/>
</g>
<!-- g18640 -->
<g id="node6" class="node">
<title>g18640</title>
<ellipse fill="paleturquoise" stroke="black" cx="205" cy="-478.4" rx="27" ry="19.6"/>
<text text-anchor="start" x="195" y="-475" font-family="Times,serif" font-style="italic" font-size="18.00">V</text>
<text text-anchor="start" x="207" y="-475" font-family="Times,serif" baseline-shift="sub" font-size="18.00">4</text>
</g>
<!-- g18640&#45;&gt;g18678 -->
<g id="edge4" class="edge">
<title>g18640&#45;&gt;g18678</title>
<path fill="none" stroke="black" d="M225.98,-465.54C237.92,-458.59 253.04,-449.47 266,-440.6 272.61,-436.08 279.52,-430.98 286,-426.04"/>
<polygon fill="black" stroke="black" points="293.93,-419.9 288.78,-429.58 289.97,-422.96 286.02,-426.02 286.02,-426.02 286.02,-426.02 289.97,-422.96 283.27,-422.47 293.93,-419.9 293.93,-419.9"/>
</g>
<!-- g18686 -->
<g id="node14" class="node">
<title>g18686</title>
<polygon fill="cornsilk" stroke="black" points="126,-419.8 72,-419.8 72,-383.8 126,-383.8 126,-419.8"/>
<text text-anchor="start" x="89.5" y="-397.4" font-family="Times,serif" font-size="18.00">⊗</text>
</g>
<!-- g18640&#45;&gt;g18686 -->
<g id="edge14" class="edge">
<title>g18640&#45;&gt;g18686</title>
<path fill="none" stroke="black" d="M186.05,-464.06C171,-453.47 149.61,-438.42 131.8,-425.88"/>
<polygon fill="black" stroke="black" points="123.38,-419.96 134.15,-422.03 127.47,-422.84 131.56,-425.71 131.56,-425.71 131.56,-425.71 127.47,-422.84 128.97,-429.39 123.38,-419.96 123.38,-419.96"/>
</g>
<!-- g18692 -->
<g id="node11" class="node">
<title>g18692</title>
<polygon fill="cyan" stroke="black" points="342,-328 288,-328 288,-292 342,-292 342,-328"/>
<text text-anchor="start" x="305.5" y="-305.6" font-family="Times,serif" font-size="18.00">⊕</text>
</g>
<!-- g18678&#45;&gt;g18692 -->
<g id="edge7" class="edge">
<title>g18678&#45;&gt;g18692</title>
<path fill="none" stroke="black" d="M315,-383.48C315,-370.69 315,-353.01 315,-338.32"/>
<polygon fill="black" stroke="black" points="315,-328.26 319.5,-338.26 315,-333.26 315,-338.26 315,-338.26 315,-338.26 315,-333.26 310.5,-338.26 315,-328.26 315,-328.26"/>
<text text-anchor="middle" x="325.5" y="-351.2" font-family="Times,serif" font-size="16.00">0.5</text>
</g>
<!-- g18638 -->
<g id="node8" class="node">
<title>g18638</title>
<ellipse fill="paleturquoise" stroke="black" cx="350" cy="-478.4" rx="27" ry="19.6"/>
<text text-anchor="start" x="340" y="-475" font-family="Times,serif" font-style="italic" font-size="18.00">V</text>
<text text-anchor="start" x="352" y="-475" font-family="Times,serif" baseline-shift="sub" font-size="18.00">5</text>
</g>
<!-- g18690 -->
<g id="node10" class="node">
<title>g18690</title>
<polygon fill="cornsilk" stroke="black" points="414,-419.8 360,-419.8 360,-383.8 414,-383.8 414,-419.8"/>
<text text-anchor="start" x="377.5" y="-397.4" font-family="Times,serif" font-size="18.00">⊗</text>
</g>
<!-- g18638&#45;&gt;g18690 -->
<g id="edge5" class="edge">
<title>g18638&#45;&gt;g18690</title>
<path fill="none" stroke="black" d="M358.96,-459.34C363.46,-450.25 369.01,-439.07 373.98,-429.06"/>
<polygon fill="black" stroke="black" points="378.51,-419.92 378.1,-430.88 376.29,-424.4 374.06,-428.88 374.06,-428.88 374.06,-428.88 376.29,-424.4 370.03,-426.88 378.51,-419.92 378.51,-419.92"/>
</g>
<!-- g18638&#45;&gt;g18686 -->
<g id="edge13" class="edge">
<title>g18638&#45;&gt;g18686</title>
<path fill="none" stroke="black" d="M329.5,-465.45C324.55,-462.91 319.18,-460.45 314,-458.6 240.47,-432.38 213.62,-447.58 135.9,-421.38"/>
<polygon fill="black" stroke="black" points="126.16,-417.98 137.09,-417.03 130.88,-419.63 135.6,-421.28 135.6,-421.28 135.6,-421.28 130.88,-419.63 134.12,-425.53 126.16,-417.98 126.16,-417.98"/>
</g>
<!-- g18662 -->
<g id="node9" class="node">
<title>g18662</title>
<ellipse fill="paleturquoise" stroke="black" cx="278" cy="-478.4" rx="27" ry="19.6"/>
<text text-anchor="start" x="268" y="-475" font-family="Times,serif" font-style="italic" font-size="18.00">V</text>
<text text-anchor="start" x="280" y="-475" font-family="Times,serif" baseline-shift="sub" font-size="18.00">6</text>
</g>
<!-- g18662&#45;&gt;g18690 -->
<g id="edge6" class="edge">
<title>g18662&#45;&gt;g18690</title>
<path fill="none" stroke="black" d="M297.24,-464.23C312.75,-453.62 334.94,-438.43 353.37,-425.81"/>
<polygon fill="black" stroke="black" points="361.81,-420.04 356.1,-429.4 357.68,-422.86 353.56,-425.69 353.56,-425.69 353.56,-425.69 357.68,-422.86 351.02,-421.97 361.81,-420.04 361.81,-420.04"/>
</g>
<!-- g18662&#45;&gt;g18682 -->
<g id="edge12" class="edge">
<title>g18662&#45;&gt;g18682</title>
<path fill="none" stroke="black" d="M257.29,-465.66C252.09,-463.06 246.44,-460.51 241,-458.6 167.74,-432.89 141.17,-447.52 63.85,-421.37"/>
<polygon fill="black" stroke="black" points="54.16,-417.98 65.09,-417.04 58.88,-419.63 63.6,-421.28 63.6,-421.28 63.6,-421.28 58.88,-419.63 62.11,-425.53 54.16,-417.98 54.16,-417.98"/>
</g>
<!-- g18690&#45;&gt;g18692 -->
<g id="edge8" class="edge">
<title>g18690&#45;&gt;g18692</title>
<path fill="none" stroke="black" d="M373.12,-383.48C362.36,-370.07 347.3,-351.29 335.21,-336.2"/>
<polygon fill="black" stroke="black" points="328.84,-328.26 338.61,-333.25 331.97,-332.16 335.1,-336.06 335.1,-336.06 335.1,-336.06 331.97,-332.16 331.58,-338.88 328.84,-328.26 328.84,-328.26"/>
<text text-anchor="middle" x="367.5" y="-351.2" font-family="Times,serif" font-size="16.00">0.5</text>
</g>
<!-- g18692&#45;&gt;g18693 -->
<g id="edge10" class="edge">
<title>g18692&#45;&gt;g18693</title>
<path fill="none" stroke="black" d="M291.76,-291.81C279.26,-282.57 263.68,-271.04 250.14,-261.03"/>
<polygon fill="black" stroke="black" points="242.02,-255.03 252.74,-257.36 246.04,-258 250.06,-260.98 250.06,-260.98 250.06,-260.98 246.04,-258 247.39,-264.59 242.02,-255.03 242.02,-255.03"/>
</g>
<!-- g18704 -->
<g id="node17" class="node">
<title>g18704</title>
<polygon fill="cyan" stroke="black" points="191,-182 137,-182 137,-146 191,-146 191,-182"/>
<text text-anchor="start" x="154.5" y="-159.6" font-family="Times,serif" font-size="18.00">⊕</text>
</g>
<!-- g18693&#45;&gt;g18704 -->
<g id="edge19" class="edge">
<title>g18693&#45;&gt;g18704</title>
<path fill="none" stroke="black" d="M205.69,-218.81C199,-210.18 190.77,-199.56 183.39,-190.03"/>
<polygon fill="black" stroke="black" points="177.19,-182.03 186.87,-187.18 180.25,-185.98 183.32,-189.93 183.32,-189.93 183.32,-189.93 180.25,-185.98 179.76,-192.69 177.19,-182.03 177.19,-182.03"/>
</g>
<!-- g18705 -->
<g id="node18" class="node">
<title>g18705</title>
<polygon fill="cyan" stroke="black" points="218,-109 164,-109 164,-73 218,-73 218,-109"/>
<text text-anchor="start" x="181.5" y="-86.6" font-family="Times,serif" font-size="18.00">⊕</text>
</g>
<!-- g18693&#45;&gt;g18705 -->
<g id="edge22" class="edge">
<title>g18693&#45;&gt;g18705</title>
<path fill="none" stroke="black" d="M215.68,-218.92C210.88,-194.23 201.96,-148.35 196.26,-119.04"/>
<polygon fill="black" stroke="black" points="194.32,-109.06 200.64,-118.02 195.27,-113.97 196.23,-118.88 196.23,-118.88 196.23,-118.88 195.27,-113.97 191.81,-119.74 194.32,-109.06 194.32,-109.06"/>
</g>
<!-- g18694 -->
<g id="node15" class="node">
<title>g18694</title>
<polygon fill="cyan" stroke="black" points="126,-328 72,-328 72,-292 126,-292 126,-328"/>
<text text-anchor="start" x="89.5" y="-305.6" font-family="Times,serif" font-size="18.00">⊕</text>
</g>
<!-- g18682&#45;&gt;g18694 -->
<g id="edge15" class="edge">
<title>g18682&#45;&gt;g18694</title>
<path fill="none" stroke="black" d="M40,-383.33C48.18,-372.48 59.04,-358.29 69,-346 71.67,-342.71 74.51,-339.29 77.34,-335.93"/>
<polygon fill="black" stroke="black" points="83.86,-328.29 80.79,-338.82 80.61,-332.09 77.37,-335.9 77.37,-335.9 77.37,-335.9 80.61,-332.09 73.94,-332.98 83.86,-328.29 83.86,-328.29"/>
<text text-anchor="middle" x="82" y="-351.2" font-family="Times,serif" font-size="16.00">&#45;0.5</text>
</g>
<!-- g18686&#45;&gt;g18694 -->
<g id="edge16" class="edge">
<title>g18686&#45;&gt;g18694</title>
<path fill="none" stroke="black" d="M99,-383.48C99,-370.69 99,-353.01 99,-338.32"/>
<polygon fill="black" stroke="black" points="99,-328.26 103.5,-338.26 99,-333.26 99,-338.26 99,-338.26 99,-338.26 99,-333.26 94.5,-338.26 99,-328.26 99,-328.26"/>
<text text-anchor="middle" x="112" y="-351.2" font-family="Times,serif" font-size="16.00">&#45;0.5</text>
</g>
<!-- g18694&#45;&gt;g18695 -->
<g id="edge18" class="edge">
<title>g18694&#45;&gt;g18695</title>
<path fill="none" stroke="black" d="M110.62,-291.81C116.4,-283.27 123.49,-272.77 129.88,-263.32"/>
<polygon fill="black" stroke="black" points="135.49,-255.03 133.61,-265.83 132.69,-259.17 129.89,-263.31 129.89,-263.31 129.89,-263.31 132.69,-259.17 126.16,-260.79 135.49,-255.03 135.49,-255.03"/>
</g>
<!-- g18695&#45;&gt;g18704 -->
<g id="edge20" class="edge">
<title>g18695&#45;&gt;g18704</title>
<path fill="none" stroke="black" d="M151.12,-218.81C153.06,-210.7 155.42,-200.84 157.59,-191.78"/>
<polygon fill="black" stroke="black" points="159.92,-182.03 161.97,-192.8 158.76,-186.89 157.59,-191.75 157.59,-191.75 157.59,-191.75 158.76,-186.89 153.22,-190.71 159.92,-182.03 159.92,-182.03"/>
</g>
<!-- g18704&#45;&gt;g18705 -->
<g id="edge21" class="edge">
<title>g18704&#45;&gt;g18705</title>
<path fill="none" stroke="black" d="M170.54,-145.81C173.65,-137.62 177.45,-127.62 180.93,-118.48"/>
<polygon fill="black" stroke="black" points="184.52,-109.03 185.18,-119.98 182.75,-113.7 180.97,-118.38 180.97,-118.38 180.97,-118.38 182.75,-113.7 176.76,-116.78 184.52,-109.03 184.52,-109.03"/>
</g>
<!-- g18705&#45;&gt;ReturnNode -->
<g id="edge23" class="edge">
<title>g18705&#45;&gt;ReturnNode</title>
<path fill="none" stroke="black" d="M191,-72.81C191,-64.79 191,-55.05 191,-46.07"/>
<polygon fill="black" stroke="black" points="191,-36.03 195.5,-46.03 191,-41.03 191,-46.03 191,-46.03 191,-46.03 191,-41.03 186.5,-46.03 191,-36.03 191,-36.03"/>
</g>
</g>
</svg>
