<?xml version="1.0" encoding="UTF-8" standalone="no"?>
<!DOCTYPE svg PUBLIC "-//W3C//DTD SVG 1.1//EN"
 "http://www.w3.org/Graphics/SVG/1.1/DTD/svg11.dtd">
<!-- Generated by graphviz version 2.43.0 (0)
 -->
<!-- Title: ComputationalGraph Pages: 1 -->
<svg width="393pt" height="523pt"
 viewBox="0.00 0.00 393.00 523.20" xmlns="http://www.w3.org/2000/svg" xmlns:xlink="http://www.w3.org/1999/xlink">
<g id="graph0" class="graph" transform="scale(1 1) rotate(0) translate(4 519.2)">
<title>ComputationalGraph</title>
<polygon fill="white" stroke="transparent" points="-4,4 -4,-519.2 389,-519.2 389,4 -4,4"/>
<!-- ReturnNode -->
<g id="node1" class="node">
<title>ReturnNode</title>
<polygon fill="darkorange" stroke="black" points="202,-36 136,-36 136,0 202,0 202,-36"/>
<text text-anchor="middle" x="169" y="-13.6" font-family="Times,serif" font-size="18.00">Return</text>
</g>
<!-- g18630 -->
<g id="node2" class="node">
<title>g18630</title>
<ellipse fill="paleturquoise" stroke="black" cx="179" cy="-495.4" rx="27" ry="19.6"/>
<text text-anchor="start" x="169" y="-492" font-family="Times,serif" font-style="italic" font-size="18.00">V</text>
<text text-anchor="start" x="181" y="-492" font-family="Times,serif" baseline-shift="sub" font-size="18.00">1</text>
</g>
<!-- g18638 -->
<g id="node4" class="node">
<title>g18638</title>
<polygon fill="cyan" stroke="black" points="84,-421.6 30,-421.6 30,-385.6 84,-385.6 84,-421.6"/>
<text text-anchor="start" x="47.5" y="-399.2" font-family="Times,serif" font-size="18.00">⊕</text>
</g>
<!-- g18630&#45;&gt;g18638 -->
<g id="edge1" class="edge">
<title>g18630&#45;&gt;g18638</title>
<path fill="none" stroke="black" d="M152.84,-489.4C132.36,-484.34 104.22,-474.76 85,-457.6 77.05,-450.5 70.98,-440.6 66.56,-431.27"/>
<polygon fill="black" stroke="black" points="62.54,-421.9 70.62,-429.32 64.51,-426.5 66.48,-431.09 66.48,-431.09 66.48,-431.09 64.51,-426.5 62.35,-432.87 62.54,-421.9 62.54,-421.9"/>
<text text-anchor="middle" x="98" y="-444.8" font-family="Times,serif" font-size="16.00">&#45;1.0</text>
</g>
<!-- g18647 -->
<g id="node6" class="node">
<title>g18647</title>
<polygon fill="cyan" stroke="black" points="297,-421.6 243,-421.6 243,-385.6 297,-385.6 297,-421.6"/>
<text text-anchor="start" x="260.5" y="-399.2" font-family="Times,serif" font-size="18.00">⊕</text>
</g>
<!-- g18630&#45;&gt;g18647 -->
<g id="edge3" class="edge">
<title>g18630&#45;&gt;g18647</title>
<path fill="none" stroke="black" d="M194.85,-478.76C208.68,-465.11 228.98,-445.08 245,-429.27"/>
<polygon fill="black" stroke="black" points="252.47,-421.9 248.51,-432.13 248.91,-425.41 245.35,-428.92 245.35,-428.92 245.35,-428.92 248.91,-425.41 242.19,-425.72 252.47,-421.9 252.47,-421.9"/>
<text text-anchor="middle" x="245" y="-444.8" font-family="Times,serif" font-size="16.00">&#45;1.0</text>
</g>
<!-- g18662 -->
<g id="node8" class="node">
<title>g18662</title>
<polygon fill="cornsilk" stroke="black" points="158,-421.6 104,-421.6 104,-385.6 158,-385.6 158,-421.6"/>
<text text-anchor="start" x="121.5" y="-399.2" font-family="Times,serif" font-size="18.00">⊗</text>
</g>
<!-- g18630&#45;&gt;g18662 -->
<g id="edge7" class="edge">
<title>g18630&#45;&gt;g18662</title>
<path fill="none" stroke="black" d="M169.4,-476.82C166.09,-470.74 162.37,-463.88 159,-457.6 154.36,-448.93 149.33,-439.45 144.83,-430.93"/>
<polygon fill="black" stroke="black" points="140.03,-421.81 148.67,-428.56 142.36,-426.23 144.69,-430.66 144.69,-430.66 144.69,-430.66 142.36,-426.23 140.71,-432.76 140.03,-421.81 140.03,-421.81"/>
<text text-anchor="middle" x="172" y="-444.8" font-family="Times,serif" font-size="16.00">&#45;1.0</text>
</g>
<!-- g18630&#45;&gt;g18662 -->
<g id="edge8" class="edge">
<title>g18630&#45;&gt;g18662</title>
<path fill="none" stroke="black" d="M154.73,-486.23C141.64,-480.45 126.64,-471.25 119,-457.6 114.51,-449.58 115.18,-440 117.72,-431.2"/>
<polygon fill="black" stroke="black" points="121.21,-421.72 121.98,-432.66 119.48,-426.41 117.75,-431.1 117.75,-431.1 117.75,-431.1 119.48,-426.41 113.53,-429.54 121.21,-421.72 121.21,-421.72"/>
<text text-anchor="middle" x="132" y="-444.8" font-family="Times,serif" font-size="16.00">&#45;1.0</text>
</g>
<!-- g18654 -->
<g id="node13" class="node">
<title>g18654</title>
<polygon fill="cornsilk" stroke="black" points="229,-348.6 175,-348.6 175,-312.6 229,-312.6 229,-348.6"/>
<text text-anchor="start" x="192.5" y="-326.2" font-family="Times,serif" font-size="18.00">⊗</text>
</g>
<!-- g18630&#45;&gt;g18654 -->
<g id="edge15" class="edge">
<title>g18630&#45;&gt;g18654</title>
<path fill="none" stroke="black" d="M182.15,-475.69C183.1,-469.9 184.12,-463.49 185,-457.6 190.07,-423.59 195.26,-384.33 198.55,-358.79"/>
<polygon fill="black" stroke="black" points="199.84,-348.74 203.03,-359.23 199.2,-353.7 198.57,-358.66 198.57,-358.66 198.57,-358.66 199.2,-353.7 194.1,-358.09 199.84,-348.74 199.84,-348.74"/>
<text text-anchor="middle" x="207" y="-399.8" font-family="Times,serif" font-size="16.00">&#45;1.0</text>
</g>
<!-- g18658 -->
<g id="node14" class="node">
<title>g18658</title>
<polygon fill="cornsilk" stroke="black" points="306,-348.6 252,-348.6 252,-312.6 306,-312.6 306,-348.6"/>
<text text-anchor="start" x="269.5" y="-326.2" font-family="Times,serif" font-size="18.00">⊗</text>
</g>
<!-- g18630&#45;&gt;g18658 -->
<g id="edge16" class="edge">
<title>g18630&#45;&gt;g18658</title>
<path fill="none" stroke="black" d="M204.73,-488.86C236.09,-480.5 287.23,-461.21 306,-421.6 315.8,-400.92 306.75,-375.87 296.57,-357.46"/>
<polygon fill="black" stroke="black" points="291.39,-348.75 300.37,-355.05 293.95,-353.05 296.5,-357.35 296.5,-357.35 296.5,-357.35 293.95,-353.05 292.63,-359.64 291.39,-348.75 291.39,-348.75"/>
<text text-anchor="middle" x="323" y="-399.8" font-family="Times,serif" font-size="16.00">&#45;1.0</text>
</g>
<!-- g18632 -->
<g id="node3" class="node">
<title>g18632</title>
<ellipse fill="paleturquoise" stroke="black" cx="27" cy="-495.4" rx="27" ry="19.6"/>
<text text-anchor="start" x="17" y="-492" font-family="Times,serif" font-style="italic" font-size="18.00">V</text>
<text text-anchor="start" x="29" y="-492" font-family="Times,serif" baseline-shift="sub" font-size="18.00">2</text>
</g>
<!-- g18632&#45;&gt;g18638 -->
<g id="edge2" class="edge">
<title>g18632&#45;&gt;g18638</title>
<path fill="none" stroke="black" d="M30.92,-475.63C33.37,-464.94 36.85,-451.36 41,-439.6 41.98,-436.82 43.1,-433.96 44.27,-431.14"/>
<polygon fill="black" stroke="black" points="48.4,-421.79 48.48,-432.76 46.38,-426.37 44.36,-430.94 44.36,-430.94 44.36,-430.94 46.38,-426.37 40.24,-429.12 48.4,-421.79 48.4,-421.79"/>
</g>
<!-- g18650 -->
<g id="node7" class="node">
<title>g18650</title>
<polygon fill="cornsilk" stroke="black" points="90,-348.6 36,-348.6 36,-312.6 90,-312.6 90,-348.6"/>
<text text-anchor="start" x="53.5" y="-326.2" font-family="Times,serif" font-size="18.00">⊗</text>
</g>
<!-- g18638&#45;&gt;g18650 -->
<g id="edge5" class="edge">
<title>g18638&#45;&gt;g18650</title>
<path fill="none" stroke="black" d="M58.45,-385.41C59.13,-377.39 59.95,-367.65 60.71,-358.67"/>
<polygon fill="black" stroke="black" points="61.56,-348.63 65.2,-358.97 61.14,-353.61 60.72,-358.59 60.72,-358.59 60.72,-358.59 61.14,-353.61 56.23,-358.21 61.56,-348.63 61.56,-348.63"/>
</g>
<!-- g18638&#45;&gt;g18654 -->
<g id="edge14" class="edge">
<title>g18638&#45;&gt;g18654</title>
<path fill="none" stroke="black" d="M84.27,-389.24C107.26,-377.99 140.35,-361.79 165.59,-349.42"/>
<polygon fill="black" stroke="black" points="174.85,-344.89 167.85,-353.33 170.36,-347.09 165.87,-349.29 165.87,-349.29 165.87,-349.29 170.36,-347.09 163.89,-345.25 174.85,-344.89 174.85,-344.89"/>
</g>
<!-- g18641 -->
<g id="node5" class="node">
<title>g18641</title>
<ellipse fill="paleturquoise" stroke="black" cx="358" cy="-495.4" rx="27" ry="19.6"/>
<text text-anchor="start" x="348" y="-492" font-family="Times,serif" font-style="italic" font-size="18.00">V</text>
<text text-anchor="start" x="360" y="-492" font-family="Times,serif" baseline-shift="sub" font-size="18.00">3</text>
</g>
<!-- g18641&#45;&gt;g18647 -->
<g id="edge4" class="edge">
<title>g18641&#45;&gt;g18647</title>
<path fill="none" stroke="black" d="M342.67,-478.76C329.3,-465.11 309.67,-445.08 294.18,-429.27"/>
<polygon fill="black" stroke="black" points="286.95,-421.9 297.17,-425.89 290.45,-425.47 293.95,-429.04 293.95,-429.04 293.95,-429.04 290.45,-425.47 290.74,-432.19 286.95,-421.9 286.95,-421.9"/>
</g>
<!-- g18647&#45;&gt;g18650 -->
<g id="edge6" class="edge">
<title>g18647&#45;&gt;g18650</title>
<path fill="none" stroke="black" d="M242.79,-390.9C238.22,-389.05 233.49,-387.22 229,-385.6 176.5,-366.67 161.86,-366.5 109,-348.6 105.94,-347.56 102.77,-346.46 99.59,-345.33"/>
<polygon fill="black" stroke="black" points="90.15,-341.91 101.09,-341.08 94.86,-343.61 99.56,-345.32 99.56,-345.32 99.56,-345.32 94.86,-343.61 98.03,-349.55 90.15,-341.91 90.15,-341.91"/>
</g>
<!-- g18647&#45;&gt;g18658 -->
<g id="edge17" class="edge">
<title>g18647&#45;&gt;g18658</title>
<path fill="none" stroke="black" d="M272.18,-385.41C273.2,-377.39 274.43,-367.65 275.57,-358.67"/>
<polygon fill="black" stroke="black" points="276.84,-348.63 280.05,-359.11 276.21,-353.59 275.58,-358.55 275.58,-358.55 275.58,-358.55 276.21,-353.59 271.12,-357.98 276.84,-348.63 276.84,-348.63"/>
</g>
<!-- g18670 -->
<g id="node9" class="node">
<title>g18670</title>
<polygon fill="cyan" stroke="black" points="90,-256.8 36,-256.8 36,-220.8 90,-220.8 90,-256.8"/>
<text text-anchor="start" x="53.5" y="-234.4" font-family="Times,serif" font-size="18.00">⊕</text>
</g>
<!-- g18650&#45;&gt;g18670 -->
<g id="edge9" class="edge">
<title>g18650&#45;&gt;g18670</title>
<path fill="none" stroke="black" d="M63,-312.28C63,-299.49 63,-281.81 63,-267.12"/>
<polygon fill="black" stroke="black" points="63,-257.06 67.5,-267.06 63,-262.06 63,-267.06 63,-267.06 63,-267.06 63,-262.06 58.5,-267.06 63,-257.06 63,-257.06"/>
<text text-anchor="middle" x="76" y="-281.8" font-family="Times,serif" font-size="16.00">&#45;1.0</text>
</g>
<!-- g18662&#45;&gt;g18670 -->
<g id="edge10" class="edge">
<title>g18662&#45;&gt;g18670</title>
<path fill="none" stroke="black" d="M128.04,-385.48C123.25,-360.45 112.3,-312.92 93,-276.6 90.95,-272.75 88.47,-268.92 85.83,-265.27"/>
<polygon fill="black" stroke="black" points="79.47,-257.14 89.17,-262.24 82.55,-261.08 85.63,-265.01 85.63,-265.01 85.63,-265.01 82.55,-261.08 82.08,-267.79 79.47,-257.14 79.47,-257.14"/>
<text text-anchor="middle" x="132" y="-326.8" font-family="Times,serif" font-size="16.00">&#45;1.0</text>
</g>
<!-- g18671 -->
<g id="node12" class="node">
<title>g18671</title>
<polygon fill="cornsilk" stroke="black" points="161,-182 107,-182 107,-146 161,-146 161,-182"/>
<text text-anchor="start" x="124.5" y="-159.6" font-family="Times,serif" font-size="18.00">⊗</text>
</g>
<!-- g18670&#45;&gt;g18671 -->
<g id="edge11" class="edge">
<title>g18670&#45;&gt;g18671</title>
<path fill="none" stroke="black" d="M79.83,-220.55C88.85,-211.3 100.11,-199.75 110.03,-189.58"/>
<polygon fill="black" stroke="black" points="117.29,-182.13 113.53,-192.43 113.8,-185.71 110.31,-189.29 110.31,-189.29 110.31,-189.29 113.8,-185.71 107.09,-186.15 117.29,-182.13 117.29,-182.13"/>
</g>
<!-- g18664 -->
<g id="node10" class="node">
<title>g18664</title>
<ellipse fill="paleturquoise" stroke="black" cx="207" cy="-238.8" rx="27" ry="19.6"/>
<text text-anchor="start" x="196.5" y="-235.4" font-family="Times,serif" font-style="italic" font-size="18.00">G</text>
<text text-anchor="start" x="209.5" y="-235.4" font-family="Times,serif" baseline-shift="sub" font-size="18.00">4</text>
</g>
<!-- g18664&#45;&gt;g18671 -->
<g id="edge12" class="edge">
<title>g18664&#45;&gt;g18671</title>
<path fill="none" stroke="black" d="M191.52,-222.36C181.93,-212.8 169.4,-200.31 158.49,-189.42"/>
<polygon fill="black" stroke="black" points="151.25,-182.2 161.51,-186.08 154.79,-185.73 158.33,-189.26 158.33,-189.26 158.33,-189.26 154.79,-185.73 155.15,-192.45 151.25,-182.2 151.25,-182.2"/>
</g>
<!-- g18667 -->
<g id="node16" class="node">
<title>g18667</title>
<polygon fill="cornsilk" stroke="black" points="234,-182 180,-182 180,-146 234,-146 234,-182"/>
<text text-anchor="start" x="197.5" y="-159.6" font-family="Times,serif" font-size="18.00">⊗</text>
</g>
<!-- g18664&#45;&gt;g18667 -->
<g id="edge21" class="edge">
<title>g18664&#45;&gt;g18667</title>
<path fill="none" stroke="black" d="M207,-218.67C207,-210.65 207,-201.16 207,-192.41"/>
<polygon fill="black" stroke="black" points="207,-182.26 211.5,-192.26 207,-187.26 207,-192.26 207,-192.26 207,-192.26 207,-187.26 202.5,-192.26 207,-182.26 207,-182.26"/>
</g>
<!-- g18665 -->
<g id="node11" class="node">
<title>g18665</title>
<ellipse fill="paleturquoise" stroke="black" cx="135" cy="-238.8" rx="27" ry="19.6"/>
<text text-anchor="start" x="124.5" y="-235.4" font-family="Times,serif" font-style="italic" font-size="18.00">G</text>
<text text-anchor="start" x="137.5" y="-235.4" font-family="Times,serif" baseline-shift="sub" font-size="18.00">5</text>
</g>
<!-- g18665&#45;&gt;g18671 -->
<g id="edge13" class="edge">
<title>g18665&#45;&gt;g18671</title>
<path fill="none" stroke="black" d="M134.74,-218.67C134.63,-210.65 134.5,-201.16 134.38,-192.41"/>
<polygon fill="black" stroke="black" points="134.24,-182.26 138.87,-192.2 134.31,-187.26 134.37,-192.26 134.37,-192.26 134.37,-192.26 134.31,-187.26 129.87,-192.32 134.24,-182.26 134.24,-182.26"/>
</g>
<!-- g18665&#45;&gt;g18667 -->
<g id="edge22" class="edge">
<title>g18665&#45;&gt;g18667</title>
<path fill="none" stroke="black" d="M150.27,-222.36C159.73,-212.8 172.08,-200.31 182.85,-189.42"/>
<polygon fill="black" stroke="black" points="189.99,-182.2 186.16,-192.47 186.47,-185.76 182.96,-189.31 182.96,-189.31 182.96,-189.31 186.47,-185.76 179.76,-186.15 189.99,-182.2 189.99,-182.2"/>
</g>
<!-- g18754 -->
<g id="node17" class="node">
<title>g18754</title>
<polygon fill="cyan" stroke="black" points="196,-109 142,-109 142,-73 196,-73 196,-109"/>
<text text-anchor="start" x="159.5" y="-86.6" font-family="Times,serif" font-size="18.00">⊕</text>
</g>
<!-- g18671&#45;&gt;g18754 -->
<g id="edge23" class="edge">
<title>g18671&#45;&gt;g18754</title>
<path fill="none" stroke="black" d="M142.47,-145.81C146.56,-137.53 151.54,-127.41 156.09,-118.19"/>
<polygon fill="black" stroke="black" points="160.61,-109.03 160.22,-119.99 158.39,-113.51 156.18,-118 156.18,-118 156.18,-118 158.39,-113.51 152.15,-116.01 160.61,-109.03 160.61,-109.03"/>
</g>
<!-- g18666 -->
<g id="node15" class="node">
<title>g18666</title>
<polygon fill="cyan" stroke="black" points="306,-256.8 252,-256.8 252,-220.8 306,-220.8 306,-256.8"/>
<text text-anchor="start" x="269.5" y="-234.4" font-family="Times,serif" font-size="18.00">⊕</text>
</g>
<!-- g18654&#45;&gt;g18666 -->
<g id="edge18" class="edge">
<title>g18654&#45;&gt;g18666</title>
<path fill="none" stroke="black" d="M216.85,-312.28C228.35,-298.87 244.46,-280.08 257.39,-265"/>
<polygon fill="black" stroke="black" points="264.2,-257.06 261.11,-267.58 260.94,-260.86 257.69,-264.65 257.69,-264.65 257.69,-264.65 260.94,-260.86 254.27,-261.72 264.2,-257.06 264.2,-257.06"/>
<text text-anchor="middle" x="260" y="-281.8" font-family="Times,serif" font-size="16.00">&#45;1.0</text>
</g>
<!-- g18658&#45;&gt;g18666 -->
<g id="edge19" class="edge">
<title>g18658&#45;&gt;g18666</title>
<path fill="none" stroke="black" d="M279,-312.28C279,-299.49 279,-281.81 279,-267.12"/>
<polygon fill="black" stroke="black" points="279,-257.06 283.5,-267.06 279,-262.06 279,-267.06 279,-267.06 279,-267.06 279,-262.06 274.5,-267.06 279,-257.06 279,-257.06"/>
<text text-anchor="middle" x="292" y="-281.8" font-family="Times,serif" font-size="16.00">&#45;1.0</text>
</g>
<!-- g18666&#45;&gt;g18667 -->
<g id="edge20" class="edge">
<title>g18666&#45;&gt;g18667</title>
<path fill="none" stroke="black" d="M261.94,-220.55C252.7,-211.21 241.14,-199.52 231.01,-189.28"/>
<polygon fill="black" stroke="black" points="223.94,-182.13 234.17,-186.07 227.46,-185.68 230.97,-189.24 230.97,-189.24 230.97,-189.24 227.46,-185.68 227.77,-192.4 223.94,-182.13 223.94,-182.13"/>
</g>
<!-- g18667&#45;&gt;g18754 -->
<g id="edge24" class="edge">
<title>g18667&#45;&gt;g18754</title>
<path fill="none" stroke="black" d="M197.8,-145.81C193.32,-137.44 187.84,-127.2 182.86,-117.9"/>
<polygon fill="black" stroke="black" points="178.11,-109.03 186.8,-115.72 180.47,-113.44 182.83,-117.85 182.83,-117.85 182.83,-117.85 180.47,-113.44 178.87,-119.97 178.11,-109.03 178.11,-109.03"/>
</g>
<!-- g18754&#45;&gt;ReturnNode -->
<g id="edge25" class="edge">
<title>g18754&#45;&gt;ReturnNode</title>
<path fill="none" stroke="black" d="M169,-72.81C169,-64.79 169,-55.05 169,-46.07"/>
<polygon fill="black" stroke="black" points="169,-36.03 173.5,-46.03 169,-41.03 169,-46.03 169,-46.03 169,-46.03 169,-41.03 164.5,-46.03 169,-36.03 169,-36.03"/>
</g>
</g>
</svg>
